# Blender v2.92.0 OBJ File: 'cochesyarreteras.blend'
# www.blender.org
mtllib bush2.mtl
o Bush2_Icosphere.084
v 0.001058 0.125004 0.011631
v 3.232754 -0.390407 2.359571
v -1.271234 -0.298706 3.798120
v 5.499185 0.560271 4.006209
v 6.464464 0.249499 -0.010910
v -3.993563 -0.390406 0.011631
v -1.233323 -0.390406 -3.787445
v 3.232754 -0.324626 -2.361131
v 7.227402 3.920614 2.277748
v -2.285913 1.012281 6.412990
v 1.963970 0.273011 6.147256
v -0.634327 5.240393 7.398858
v -6.794999 0.560292 0.011631
v -5.262390 0.273026 3.799289
v -7.350258 4.006028 2.318082
v -2.099007 0.560272 -6.451792
v -5.227963 0.189783 -3.787458
v -4.465069 3.703825 -6.135461
v 5.499185 0.884519 -4.105335
v 1.998387 0.249493 -6.157960
v 4.467182 4.806080 -6.551520
v 4.342219 4.006013 6.117228
v -5.100457 5.240407 5.947723
v -7.225302 3.703825 -2.336316
v 0.001058 3.920609 -7.668419
v 7.227402 4.806079 -2.752374
v 1.357271 8.900749 6.228045
v 5.108705 8.208785 3.688585
v 0.602624 11.715689 3.593750
v -6.240921 8.900749 3.759201
v -3.258212 10.750282 5.739620
v -3.866043 11.703899 2.148572
v -5.497078 7.101898 -3.982946
v -6.587337 8.000711 -0.029864
v -3.240595 10.209408 -2.346423
v 2.101113 8.392279 -6.938864
v -1.996281 7.915284 -6.217248
v 1.235429 11.269550 -4.203508
v 6.797105 8.392263 -0.475443
v 5.230070 9.887660 -4.613786
v 3.995662 11.269550 -0.404433
v -0.122199 11.861883 -0.128102
vt 0.792128 0.704919
vt 0.786110 0.715343
vt 0.798146 0.715343
vt 0.780092 0.725767
vt 0.774073 0.715343
vt 0.768055 0.725767
vt 0.695835 0.704919
vt 0.689817 0.715343
vt 0.701853 0.715343
vt 0.719908 0.704919
vt 0.713890 0.715343
vt 0.725927 0.715343
vt 0.743982 0.704919
vt 0.737963 0.715343
vt 0.750000 0.715343
vt 0.774073 0.736191
vt 0.804165 0.725767
vt 0.792128 0.725767
vt 0.798146 0.736191
vt 0.707872 0.725767
vt 0.695835 0.725767
vt 0.701853 0.736191
vt 0.731945 0.725767
vt 0.719908 0.725767
vt 0.725927 0.736191
vt 0.756018 0.725767
vt 0.743982 0.725767
vt 0.750000 0.736191
vt 0.786110 0.736191
vt 0.810183 0.736191
vt 0.713890 0.736191
vt 0.737963 0.736191
vt 0.762037 0.736191
vt 0.792128 0.746615
vt 0.780092 0.746615
vt 0.786110 0.757039
vt 0.816202 0.746615
vt 0.804165 0.746615
vt 0.810183 0.757039
vt 0.719908 0.746615
vt 0.707872 0.746615
vt 0.713890 0.757039
vt 0.743982 0.746615
vt 0.731945 0.746615
vt 0.737963 0.757039
vt 0.768055 0.746615
vt 0.756018 0.746615
vt 0.762037 0.757039
vt 0.750000 0.757039
vt 0.756018 0.767463
vt 0.725927 0.757039
vt 0.731945 0.767463
vt 0.701853 0.757039
vt 0.707872 0.767463
vt 0.695835 0.746615
vt 0.798146 0.757039
vt 0.804165 0.767463
vt 0.774073 0.757039
vt 0.780092 0.767463
vt 0.689817 0.736191
vt 0.683798 0.725767
vt 0.762037 0.715343
vt 0.768055 0.704919
vn -0.0622 -0.9894 -0.1316
vn 0.2924 -0.9455 0.1434
vn 0.1277 -0.9895 -0.0678
vn 0.1274 -0.9875 0.0926
vn -0.0316 -0.9890 0.1444
vn 0.9077 -0.3411 0.2445
vn 0.0200 -0.2344 0.9719
vn -0.8742 -0.3594 0.3265
vn -0.5790 -0.3623 -0.7304
vn 0.5203 -0.3492 -0.7793
vn 0.7943 -0.1003 0.5991
vn -0.3075 -0.1005 0.9462
vn -0.9888 -0.1480 -0.0169
vn -0.3151 -0.1428 -0.9383
vn 0.7996 -0.1520 -0.5810
vn 0.5012 0.6591 0.5607
vn -0.6378 0.7108 0.2967
vn -0.6695 0.6628 -0.3354
vn -0.2049 0.6413 -0.7394
vn 0.7161 0.6977 -0.0190
vn 0.1352 0.9859 -0.0983
vn 0.2991 0.9291 -0.2173
vn 0.1735 0.7055 -0.6872
vn -0.3165 0.9180 -0.2389
vn -0.4035 0.7244 -0.5590
vn -0.5071 0.6601 -0.5542
vn -0.2429 0.9099 -0.3363
vn -0.6655 0.6756 -0.3172
vn -0.7818 0.6189 -0.0755
vn -0.0164 0.9990 0.0424
vn -0.0898 0.9587 0.2698
vn 0.2069 0.6975 0.6861
vn 0.1431 0.9896 0.0110
vn 0.5595 0.7295 0.3934
vn 0.6856 0.6600 0.3071
vn 0.9283 0.2721 -0.2532
vn 0.8048 0.1021 -0.5847
vn 0.5018 0.2414 -0.8306
vn -0.1959 0.2468 -0.9491
vn -0.3272 0.1738 -0.9288
vn -0.5615 0.3143 -0.7654
vn -0.8986 0.3035 -0.3168
vn -0.9854 0.1663 -0.0373
vn -0.9769 0.2098 0.0395
vn -0.6359 0.2403 0.7334
vn -0.3061 0.1379 0.9420
vn 0.0175 0.2959 0.9550
vn 0.5701 0.3306 0.7521
vn 0.7861 0.1955 0.5864
vn 0.8758 0.3114 0.3688
vn 0.2332 0.0489 -0.9712
vn 0.2790 -0.2317 -0.9319
vn 0.0394 -0.3618 -0.9314
vn -0.8026 0.1256 -0.5831
vn -0.7906 -0.2122 -0.5744
vn -0.8736 -0.3623 -0.3250
vn -0.8555 0.0420 0.5160
vn -0.7941 -0.2193 0.5668
vn -0.5841 -0.3061 0.7518
vn 0.2813 0.1501 0.9478
vn 0.2168 -0.1304 0.9675
vn 0.5099 -0.3184 0.7992
vn 0.9940 0.1073 0.0189
vn 0.9824 -0.1840 -0.0324
vn 0.9130 -0.3114 -0.2635
vn 0.3073 -0.9211 -0.2392
vn 0.0691 -0.9828 -0.1711
vn -0.0487 -0.9456 -0.3216
vn -0.1374 -0.9462 -0.2930
vn -0.1430 -0.9843 -0.1039
vn -0.3211 -0.9462 -0.0402
vn -0.3208 -0.9454 0.0581
vn -0.1407 -0.9821 0.1249
vn -0.1310 -0.9057 0.4032
vn -0.1309 -0.9057 0.4033
vn -0.1296 -0.9056 0.4038
vn 0.3228 -0.9208 -0.2189
vn 0.1845 -0.9827 -0.0137
vn -0.1477 -0.9889 -0.0138
vn -0.1324 -0.9057 0.4027
vn 0.0391 -0.9819 0.1851
vn 0.2221 -0.9450 0.2399
usemtl Material.009
s 1
f 1/1/1 2/2/1 3/3/1
f 4/4/2 2/5/2 5/6/2
f 1/7/3 3/8/3 6/9/3
f 1/10/4 6/11/4 7/12/4
f 1/13/5 7/14/5 8/15/5
f 4/4/6 5/6/6 9/16/6
f 10/17/7 11/18/7 12/19/7
f 13/20/8 14/21/8 15/22/8
f 16/23/9 17/24/9 18/25/9
f 19/26/10 20/27/10 21/28/10
f 4/4/11 9/16/11 22/29/11
f 10/17/12 12/19/12 23/30/12
f 13/20/13 15/22/13 24/31/13
f 16/23/14 18/25/14 25/32/14
f 19/26/15 21/28/15 26/33/15
f 27/34/16 28/35/16 29/36/16
f 30/37/17 31/38/17 32/39/17
f 33/40/18 34/41/18 35/42/18
f 36/43/19 37/44/19 38/45/19
f 39/46/20 40/47/20 41/48/20
f 41/48/21 38/49/21 42/50/21
f 41/48/22 40/47/22 38/49/22
f 40/47/23 36/43/23 38/49/23
f 38/45/24 35/51/24 42/52/24
f 38/45/25 37/44/25 35/51/25
f 37/44/26 33/40/26 35/51/26
f 35/42/27 32/53/27 42/54/27
f 35/42/28 34/41/28 32/53/28
f 34/41/29 30/55/29 32/53/29
f 32/39/30 29/56/30 42/57/30
f 32/39/31 31/38/31 29/56/31
f 31/38/32 27/34/32 29/56/32
f 29/36/33 41/58/33 42/59/33
f 29/36/34 28/35/34 41/58/34
f 28/35/35 39/46/35 41/58/35
f 26/33/36 40/47/36 39/46/36
f 26/33/37 21/28/37 40/47/37
f 21/28/38 36/43/38 40/47/38
f 25/32/39 37/44/39 36/43/39
f 25/32/40 18/25/40 37/44/40
f 18/25/41 33/40/41 37/44/41
f 24/31/42 34/41/42 33/40/42
f 24/31/43 15/22/43 34/41/43
f 15/22/44 30/55/44 34/41/44
f 23/30/45 31/38/45 30/37/45
f 23/30/46 12/19/46 31/38/46
f 12/19/47 27/34/47 31/38/47
f 22/29/48 28/35/48 27/34/48
f 22/29/49 9/16/49 28/35/49
f 9/16/50 39/46/50 28/35/50
f 21/28/51 25/32/51 36/43/51
f 21/28/52 20/27/52 25/32/52
f 20/27/53 16/23/53 25/32/53
f 18/25/54 24/31/54 33/40/54
f 18/25/55 17/24/55 24/31/55
f 17/24/56 13/20/56 24/31/56
f 15/22/57 23/60/57 30/55/57
f 15/22/58 14/21/58 23/60/58
f 14/21/59 10/61/59 23/60/59
f 12/19/60 22/29/60 27/34/60
f 12/19/61 11/18/61 22/29/61
f 11/18/62 4/4/62 22/29/62
f 9/16/63 26/33/63 39/46/63
f 9/16/64 5/6/64 26/33/64
f 5/6/65 19/26/65 26/33/65
f 8/15/66 20/27/66 19/26/66
f 8/15/67 7/14/67 20/27/67
f 7/14/68 16/23/68 20/27/68
f 7/12/69 17/24/69 16/23/69
f 7/12/70 6/11/70 17/24/70
f 6/11/71 13/20/71 17/24/71
f 6/9/72 14/21/72 13/20/72
f 6/9/73 3/8/73 14/21/73
f 3/8/74 10/61/75 14/21/76
f 5/6/77 8/62/77 19/26/77
f 5/6/78 2/5/78 8/62/78
f 2/5/79 1/63/79 8/62/79
f 3/3/74 11/18/80 10/17/75
f 3/3/81 2/2/81 11/18/81
f 2/2/82 4/4/82 11/18/82
