# Blender v2.92.0 OBJ File: 'cochesyarreteras.blend'
# www.blender.org
mtllib rock2.mtl
o Rock4_Cylinder.019
v 9.407876 -0.100235 10.521883
v -1.123500 3.186285 12.813755
v -5.333262 -0.136082 8.417999
v -10.503414 3.503444 -3.748217
v -2.761338 22.542252 8.139921
v -1.950498 26.967064 -0.512778
v -3.825912 1.795747 -10.335526
v 4.744792 -0.105734 -10.831553
v 15.579556 1.626373 -3.623806
v 13.617842 5.457135 8.727415
v 14.388161 20.277376 -0.780802
v 9.079618 22.539635 7.948030
v -1.837498 15.444535 -10.644033
v 5.053587 27.740868 2.120321
v 3.476809 27.334179 -5.008577
v 8.421108 20.187784 -8.057770
vt 0.325063 0.232057
vt 0.318596 0.242676
vt 0.312815 0.232831
vt 0.305273 0.241538
vt 0.315437 0.251154
vt 0.301025 0.251168
vt 0.298985 0.238696
vt 0.294930 0.236323
vt 0.335911 0.201830
vt 0.338295 0.219502
vt 0.343532 0.214089
vt 0.328898 0.244975
vt 0.335032 0.251101
vt 0.327384 0.251146
vt 0.298039 0.250852
vt 0.301054 0.215239
vt 0.312025 0.209782
vt 0.310161 0.220075
vt 0.307885 0.251168
vt 0.328422 0.251168
vt 0.341772 0.251110
vt 0.345243 0.251168
vt 0.347509 0.250611
vt 0.345273 0.233465
vt 0.327837 0.203993
vt 0.336825 0.237334
vt 0.295078 0.251168
vt 0.319589 0.215003
vn -0.0916 -0.7502 0.6548
vn -0.9400 0.3314 0.0814
vn -0.2216 -0.9680 -0.1175
vn 0.1835 -0.9822 -0.0398
vn 0.8549 0.2479 0.4557
vn -0.6888 0.0841 -0.7200
vn 0.0158 0.2360 0.9716
vn -0.0966 0.9947 -0.0354
vn -0.2545 0.8705 0.4213
vn 0.5986 0.6269 -0.4986
vn -0.7534 0.0934 0.6509
vn -0.8323 0.3614 -0.4203
vn 0.2010 0.0968 -0.9748
vn 0.0378 0.4142 -0.9094
vn 0.2599 0.1128 0.9590
vn 0.0109 0.7498 0.6616
vn -0.9030 0.1075 0.4159
vn -0.3590 -0.9250 -0.1241
vn 0.0025 -1.0000 -0.0003
vn 0.9887 0.0412 0.1443
vn -0.0608 -0.0137 -0.9981
vn 0.5523 0.0139 -0.8335
vn 0.7643 0.1446 -0.6285
vn 0.2448 0.1130 0.9630
vn 0.6493 0.7324 0.2051
vn -0.5562 0.5457 -0.6268
vn 0.8058 -0.5173 0.2884
vn 0.5814 0.7948 -0.1739
usemtl Material.012
s 1
f 1/1/1 2/2/1 3/3/1
f 4/4/2 5/5/2 6/6/2
f 3/3/3 7/7/3 8/8/3
f 1/9/4 8/10/4 9/11/4
f 10/12/5 11/13/5 12/14/5
f 4/4/6 13/15/6 7/7/6
f 2/2/7 12/14/7 5/5/7
f 6/16/8 14/17/8 15/18/8
f 6/19/9 5/5/9 14/20/9
f 11/13/10 16/21/10 15/22/10
f 2/2/11 5/5/11 3/3/11
f 6/6/12 13/15/12 4/4/12
f 13/23/13 16/21/13 8/24/13
f 15/22/14 16/21/14 13/23/14
f 10/12/15 12/14/15 1/1/15
f 5/5/16 12/14/16 14/20/16
f 3/3/17 5/5/17 4/4/17
f 3/3/18 4/4/18 7/7/18
f 1/9/19 3/25/19 8/10/19
f 9/26/20 11/13/20 10/12/20
f 8/8/21 7/7/21 13/15/21
f 8/24/22 16/21/22 9/26/22
f 11/13/23 9/26/23 16/21/23
f 1/1/24 12/14/24 2/2/24
f 11/13/25 14/20/25 12/14/25
f 15/27/26 13/15/26 6/6/26
f 1/1/27 9/26/27 10/12/27
f 11/28/28 15/18/28 14/17/28
