# Blender v2.92.0 OBJ File: 'cochesyarreteras.blend'
# www.blender.org
mtllib Curve2b.mtl
o Curve2border_Cube.020
v -79.999962 -2.396815 70.620644
v -79.999962 -2.396815 61.287315
v -79.999962 2.603185 70.620644
v -79.999962 2.603185 61.287315
v -79.999962 -2.396815 -70.712677
v -79.999962 -2.396815 -61.379349
v -79.999962 2.603185 -70.712677
v -79.999962 2.603185 -61.379349
v 140.666672 -2.396815 149.953979
v 131.333328 -2.396815 149.953979
v 140.666672 2.603185 149.953979
v 131.333328 2.603185 149.953979
v -0.666674 -2.396815 149.953979
v 8.666651 -2.396815 149.953995
v -0.666674 2.603185 149.953979
v 8.666651 2.603185 149.953995
v -65.053474 -2.396815 61.923534
v -51.864449 -2.396815 63.763012
v -40.325214 -2.396815 66.701965
v -30.328064 -2.396815 70.636627
v -21.765308 -2.396815 75.463211
v -14.529210 -2.396815 81.077927
v -8.512097 -2.396815 87.377045
v -3.606225 -2.396815 94.256737
v 0.296077 -2.396815 101.613243
v 3.302536 -2.396815 109.342812
v 5.520840 -2.396815 117.341621
v 7.058698 -2.396815 125.505920
v 8.023816 -2.396815 133.731934
v 8.523905 -2.396815 141.915894
v -65.053474 2.603185 61.923534
v -51.864449 2.603185 63.763012
v -40.325214 2.603185 66.701965
v -30.328064 2.603185 70.636627
v -21.765289 2.603185 75.463211
v -14.529191 2.603185 81.077927
v -8.512059 2.603185 87.377045
v -3.606206 2.603185 94.256737
v 0.296097 2.603185 101.613266
v 3.302555 2.603185 109.342812
v 5.520859 2.603185 117.341644
v 7.058717 2.603185 125.505943
v 8.023835 2.603185 133.731964
v 8.523924 2.603185 141.915909
v -66.626785 2.603185 71.189896
v -54.826084 2.603185 72.835739
v -44.501511 2.603185 75.465332
v -35.556690 2.603185 78.985817
v -27.895260 2.603185 83.304337
v -21.420860 2.603185 88.328049
v -16.037102 2.603185 93.964088
v -11.647644 2.603185 100.119598
v -8.156109 2.603185 106.701744
v -5.466137 2.603185 113.617661
v -3.481330 2.603185 120.774506
v -2.105350 2.603185 128.079407
v -1.241835 2.603185 135.439529
v -0.794390 2.603185 142.761993
v -0.794409 -2.396815 142.761993
v -1.241854 -2.396815 135.439529
v -2.105388 -2.396815 128.079407
v -3.481369 -2.396815 120.774506
v -5.466156 -2.396815 113.617661
v -8.156147 -2.396815 106.701744
v -11.647682 -2.396815 100.119598
v -16.037140 -2.396815 93.964088
v -21.420879 -2.396815 88.328049
v -27.895271 -2.396815 83.304337
v -35.556690 -2.396815 78.985817
v -44.501511 -2.396815 75.465332
v -54.826084 -2.396815 72.835739
v -66.626785 -2.396815 71.189896
v -42.802277 -2.396815 -69.129311
v -9.978474 -2.396815 -64.551361
v 18.739466 -2.396815 -57.237114
v 43.619595 -2.396815 -47.444847
v 64.929947 -2.396815 -35.432816
v 82.938553 -2.396815 -21.459309
v 97.913544 -2.396815 -5.782598
v 110.122864 -2.396815 11.339055
v 119.834602 -2.396815 29.647375
v 127.316826 -2.396815 48.884083
v 132.837555 -2.396815 68.790909
v 136.664856 -2.396815 89.109573
v 139.066757 -2.396815 109.581833
v 140.311340 -2.396815 129.949402
v -42.802277 2.603185 -69.129311
v -9.978474 2.603185 -64.551361
v 18.739466 2.603185 -57.237114
v 43.619595 2.603185 -47.444847
v 64.929947 2.603185 -35.432816
v 82.938553 2.603185 -21.459314
v 97.913544 2.603185 -5.782603
v 110.122864 2.603185 11.339046
v 119.834602 2.603185 29.647356
v 127.316826 2.603185 48.884052
v 132.837555 2.603185 68.790878
v 136.664856 2.603185 89.109535
v 139.066757 2.603185 109.581795
v 140.311340 2.603185 129.949356
v -44.375595 2.603185 -59.862930
v -12.940109 2.603185 -55.478626
v 14.563153 2.603185 -48.473736
v 38.390945 2.603185 -39.095638
v 58.799938 2.603185 -27.591677
v 76.046875 2.603185 -14.209197
v 90.388443 2.603185 0.804455
v 102.081367 2.603185 17.201931
v 111.382339 2.603185 34.735878
v 118.548080 2.603185 53.158943
v 123.835304 2.603185 72.223793
v 127.500717 2.603185 91.683067
v 129.801041 2.603185 111.289429
v 130.992981 2.603185 130.795517
v 130.993057 -2.396815 130.795471
v 129.801117 -2.396815 111.289391
v 127.500778 -2.396815 91.683044
v 123.835342 -2.396815 72.223770
v 118.548119 -2.396815 53.158928
v 111.382362 -2.396815 34.735863
v 102.081383 -2.396815 17.201918
v 90.388443 -2.396815 0.804445
v 76.046875 -2.396815 -14.209207
v 58.799938 -2.396815 -27.591681
v 38.390945 -2.396815 -39.095638
v 14.563153 -2.396815 -48.473743
v -12.940109 -2.396815 -55.478626
v -44.375595 -2.396815 -59.862938
vt 0.750000 0.750000
vt 0.750000 0.750000
vt 0.750000 0.750000
vt 0.750000 0.750000
vt 0.750000 0.750000
vt 0.750000 0.750000
vt 0.750000 0.750000
vt 0.750000 0.750000
vt 0.750000 0.750000
vt 0.750000 0.750000
vt 0.750000 0.750000
vt 0.750000 0.750000
vt 0.750000 0.750000
vt 0.750000 0.750000
vt 0.750000 0.750000
vt 0.750000 0.750000
vt 0.750000 0.750000
vt 0.750000 0.750000
vt 0.750000 0.750000
vt 0.750000 0.750000
vt 0.750000 0.750000
vt 0.750000 0.750000
vt 0.750000 0.750000
vt 0.750000 0.750000
vt 0.750000 0.750000
vt 0.750000 0.750000
vt 0.750000 0.750000
vt 0.750000 0.750000
vt 0.750000 0.750000
vt 0.750000 0.750000
vt 0.750000 0.750000
vt 0.750000 0.750000
vt 0.750000 0.750000
vt 0.750000 0.750000
vt 0.750000 0.750000
vt 0.750000 0.750000
vt 0.750000 0.750000
vt 0.750000 0.750000
vt 0.750000 0.750000
vt 0.750000 0.750000
vt 0.750000 0.750000
vt 0.750000 0.750000
vt 0.750000 0.750000
vt 0.750000 0.750000
vt 0.750000 0.750000
vt 0.750000 0.750000
vt 0.750000 0.750000
vt 0.750000 0.750000
vt 0.750000 0.750000
vt 0.750000 0.750000
vt 0.750000 0.750000
vt 0.750000 0.750000
vt 0.750000 0.750000
vt 0.750000 0.750000
vt 0.750000 0.750000
vt 0.750000 0.750000
vt 0.750000 0.750000
vt 0.750000 0.750000
vt 0.750000 0.750000
vt 0.750000 0.750000
vt 0.750000 0.750000
vt 0.750000 0.750000
vt 0.750000 0.750000
vt 0.750000 0.750000
vt 0.750000 0.750000
vt 0.750000 0.750000
vt 0.750000 0.750000
vt 0.750000 0.750000
vt 0.750000 0.750000
vt 0.750000 0.750000
vt 0.750000 0.750000
vt 0.750000 0.750000
vt 0.750000 0.750000
vt 0.750000 0.750000
vt 0.750000 0.750000
vt 0.750000 0.750000
vt 0.750000 0.750000
vt 0.750000 0.750000
vt 0.750000 0.750000
vt 0.750000 0.750000
vt 0.750000 0.750000
vt 0.750000 0.750000
vt 0.750000 0.750000
vt 0.750000 0.750000
vt 0.750000 0.750000
vt 0.750000 0.750000
vt 0.750000 0.750000
vt 0.750000 0.750000
vt 0.750000 0.750000
vt 0.750000 0.750000
vt 0.750000 0.750000
vt 0.750000 0.750000
vt 0.750000 0.750000
vt 0.750000 0.750000
vt 0.750000 0.750000
vt 0.750000 0.750000
vt 0.750000 0.750000
vt 0.750000 0.750000
vt 0.750000 0.750000
vt 0.750000 0.750000
vt 0.750000 0.750000
vt 0.750000 0.750000
vt 0.750000 0.750000
vt 0.750000 0.750000
vt 0.750000 0.750000
vt 0.750000 0.750000
vt 0.750000 0.750000
vt 0.750000 0.750000
vt 0.750000 0.750000
vt 0.750000 0.750000
vt 0.750000 0.750000
vt 0.750000 0.750000
vt 0.750000 0.750000
vt 0.750000 0.750000
vt 0.750000 0.750000
vt 0.750000 0.750000
vt 0.750000 0.750000
vt 0.750000 0.750000
vt 0.750000 0.750000
vt 0.750000 0.750000
vt 0.750000 0.750000
vt 0.750000 0.750000
vt 0.750000 0.750000
vt 0.750000 0.750000
vt 0.750000 0.750000
vt 0.750000 0.750000
vt 0.750000 0.750000
vt 0.750000 0.750000
vn -0.9998 -0.0000 0.0178
vn 0.0000 1.0000 0.0000
vn 0.9998 -0.0000 -0.0178
vn 0.9981 -0.0000 -0.0610
vn 0.9932 -0.0000 -0.1165
vn 0.9827 -0.0000 -0.1851
vn 0.9636 -0.0000 -0.2672
vn 0.9320 -0.0000 -0.3625
vn 0.8834 -0.0000 -0.4686
vn 0.8142 -0.0000 -0.5806
vn 0.7231 -0.0000 -0.6907
vn 0.6130 -0.0000 -0.7901
vn 0.4910 -0.0000 -0.8711
vn 0.3662 0.0000 -0.9305
vn 0.2468 0.0000 -0.9691
vn 0.1381 0.0000 -0.9904
vn 0.0425 0.0000 -0.9991
vn -0.9981 0.0000 0.0610
vn -0.9932 0.0000 0.1165
vn -0.9827 0.0000 0.1851
vn -0.9636 0.0000 0.2672
vn -0.9320 0.0000 0.3625
vn -0.8834 0.0000 0.4686
vn -0.8142 0.0000 0.5806
vn -0.7231 0.0000 0.6907
vn -0.6130 0.0000 0.7901
vn -0.4910 0.0000 0.8711
vn -0.3662 0.0000 0.9305
vn -0.2468 0.0000 0.9691
vn -0.1381 0.0000 0.9904
vn -0.0425 0.0000 0.9991
usemtl Material
s off
f 10/1/1 12/2/1 114/3/1 115/4/1
f 12/2/2 11/5/2 100/6/2 114/3/2
f 11/5/3 9/7/3 86/8/3 100/6/3
f 13/9/1 15/10/1 58/11/1 59/12/1
f 15/10/2 16/13/2 44/14/2 58/11/2
f 16/13/3 14/15/3 30/16/3 44/14/3
f 44/14/4 30/16/4 29/17/4 43/18/4
f 43/18/5 29/17/5 28/19/5 42/20/5
f 42/20/6 28/19/6 27/21/6 41/22/6
f 41/22/7 27/21/7 26/23/7 40/24/7
f 40/24/8 26/23/8 25/25/8 39/26/8
f 39/26/9 25/25/9 24/27/9 38/28/9
f 38/28/10 24/27/10 23/29/10 37/30/10
f 37/30/11 23/29/11 22/31/11 36/32/11
f 36/32/12 22/31/12 21/33/12 35/34/12
f 35/34/13 21/33/13 20/35/13 34/36/13
f 34/36/14 20/35/14 19/37/14 33/38/14
f 33/38/15 19/37/15 18/39/15 32/40/15
f 32/40/16 18/39/16 17/41/16 31/42/16
f 31/42/17 17/41/17 2/43/17 4/44/17
f 58/11/2 44/14/2 43/18/2 57/45/2
f 57/45/2 43/18/2 42/20/2 56/46/2
f 56/46/2 42/20/2 41/22/2 55/47/2
f 55/47/2 41/22/2 40/24/2 54/48/2
f 54/48/2 40/24/2 39/26/2 53/49/2
f 53/49/2 39/26/2 38/28/2 52/50/2
f 52/50/2 38/28/2 37/30/2 51/51/2
f 51/51/2 37/30/2 36/32/2 50/52/2
f 50/52/2 36/32/2 35/34/2 49/53/2
f 49/53/2 35/34/2 34/36/2 48/54/2
f 48/54/2 34/36/2 33/38/2 47/55/2
f 47/55/2 33/38/2 32/40/2 46/56/2
f 46/56/2 32/40/2 31/42/2 45/57/2
f 45/57/2 31/42/2 4/44/2 3/58/2
f 59/12/18 58/11/18 57/45/18 60/59/18
f 60/59/19 57/45/19 56/46/19 61/60/19
f 61/60/20 56/46/20 55/47/20 62/61/20
f 62/61/21 55/47/21 54/48/21 63/62/21
f 63/62/22 54/48/22 53/49/22 64/63/22
f 64/63/23 53/49/23 52/50/23 65/64/23
f 65/64/24 52/50/24 51/51/24 66/65/24
f 66/65/25 51/51/25 50/52/25 67/66/25
f 67/66/26 50/52/26 49/53/26 68/67/26
f 68/67/27 49/53/27 48/54/27 69/68/27
f 69/68/28 48/54/28 47/55/28 70/69/28
f 70/69/29 47/55/29 46/56/29 71/70/29
f 71/70/30 46/56/30 45/57/30 72/71/30
f 72/71/31 45/57/31 3/58/31 1/72/31
f 100/6/4 86/8/4 85/73/4 99/74/4
f 99/74/5 85/73/5 84/75/5 98/76/5
f 98/76/6 84/75/6 83/77/6 97/78/6
f 97/78/7 83/77/7 82/79/7 96/80/7
f 96/80/8 82/79/8 81/81/8 95/82/8
f 95/82/9 81/81/9 80/83/9 94/84/9
f 94/84/10 80/83/10 79/85/10 93/86/10
f 93/86/11 79/85/11 78/87/11 92/88/11
f 92/88/12 78/87/12 77/89/12 91/90/12
f 91/90/13 77/89/13 76/91/13 90/92/13
f 90/92/14 76/91/14 75/93/14 89/94/14
f 89/94/15 75/93/15 74/95/15 88/96/15
f 88/96/16 74/95/16 73/97/16 87/98/16
f 87/98/17 73/97/17 5/99/17 7/100/17
f 114/3/2 100/6/2 99/74/2 113/101/2
f 113/101/2 99/74/2 98/76/2 112/102/2
f 112/102/2 98/76/2 97/78/2 111/103/2
f 111/103/2 97/78/2 96/80/2 110/104/2
f 110/104/2 96/80/2 95/82/2 109/105/2
f 109/105/2 95/82/2 94/84/2 108/106/2
f 108/106/2 94/84/2 93/86/2 107/107/2
f 107/107/2 93/86/2 92/88/2 106/108/2
f 106/108/2 92/88/2 91/90/2 105/109/2
f 105/109/2 91/90/2 90/92/2 104/110/2
f 104/110/2 90/92/2 89/94/2 103/111/2
f 103/111/2 89/94/2 88/96/2 102/112/2
f 102/112/2 88/96/2 87/98/2 101/113/2
f 101/113/2 87/98/2 7/100/2 8/114/2
f 115/4/18 114/3/18 113/101/18 116/115/18
f 116/115/19 113/101/19 112/102/19 117/116/19
f 117/116/20 112/102/20 111/103/20 118/117/20
f 118/117/21 111/103/21 110/104/21 119/118/21
f 119/118/22 110/104/22 109/105/22 120/119/22
f 120/119/23 109/105/23 108/106/23 121/120/23
f 121/120/24 108/106/24 107/107/24 122/121/24
f 122/121/25 107/107/25 106/108/25 123/122/25
f 123/122/26 106/108/26 105/109/26 124/123/26
f 124/123/27 105/109/27 104/110/27 125/124/27
f 125/124/28 104/110/28 103/111/28 126/125/28
f 126/125/29 103/111/29 102/112/29 127/126/29
f 127/126/30 102/112/30 101/113/30 128/127/30
f 128/127/31 101/113/31 8/114/31 6/128/31
