# Blender v2.92.0 OBJ File: 'cochesyarreteras.blend'
# www.blender.org
mtllib Curve1.mtl
o Curve1_Cube.001
v -70.531609 -2.456604 -54.369011
v -70.531609 -2.456604 6.964314
v -21.198294 -2.456604 56.297646
v 40.135029 -2.456604 56.297646
v -52.976856 -2.456604 -53.669907
v -37.357407 -2.456604 -51.643734
v -23.562513 -2.456604 -48.397224
v -11.481415 -2.456604 -44.037102
v -1.003337 -2.456604 -38.670101
v 7.982479 -2.456604 -32.402935
v 15.586801 -2.456604 -25.342335
v 21.920399 -2.456604 -17.595037
v 27.094044 -2.456604 -9.267754
v 31.218494 -2.456604 -0.467219
v 34.404510 -2.456604 8.699843
v 36.762871 -2.456604 18.126707
v 38.404335 -2.456604 27.706642
v 39.439663 -2.456604 37.332932
v 39.979637 -2.456604 46.898834
v -62.705997 -2.456604 7.275965
v -55.743118 -2.456604 8.179197
v -49.593586 -2.456604 9.626435
v -44.208035 -2.456604 11.570105
v -39.537083 -2.456604 13.962626
v -35.531353 -2.456604 16.756424
v -32.141472 -2.456604 19.903921
v -29.318060 -2.456604 23.357538
v -27.011740 -2.456604 27.069702
v -25.173132 -2.456604 30.992834
v -23.752855 -2.456604 35.079353
v -22.701532 -2.456604 39.281693
v -21.969797 -2.456604 43.552265
v -21.508257 -2.456604 47.843494
v -21.267550 -2.456604 52.107811
vt 0.250000 0.687500
vt 0.250000 0.687500
vt 0.250000 0.687500
vt 0.250000 0.687500
vt 0.250000 0.687500
vt 0.250000 0.687500
vt 0.250000 0.687500
vt 0.250000 0.687500
vt 0.250000 0.687500
vt 0.250000 0.687500
vt 0.250000 0.687500
vt 0.250000 0.687500
vt 0.250000 0.687500
vt 0.250000 0.687500
vt 0.250000 0.687500
vt 0.250000 0.687500
vt 0.250000 0.687500
vt 0.250000 0.687500
vt 0.250000 0.687500
vt 0.250000 0.687500
vt 0.250000 0.687500
vt 0.250000 0.687500
vt 0.250000 0.687500
vt 0.250000 0.687500
vt 0.250000 0.687500
vt 0.250000 0.687500
vt 0.250000 0.687500
vt 0.250000 0.687500
vt 0.250000 0.687500
vt 0.250000 0.687500
vt 0.250000 0.687500
vt 0.250000 0.687500
vt 0.250000 0.687500
vt 0.250000 0.687500
vn -0.0000 1.0000 -0.0000
usemtl Material
s off
f 3/1/1 4/2/1 19/3/1 34/4/1
f 34/4/1 19/3/1 18/5/1 33/6/1
f 33/6/1 18/5/1 17/7/1 32/8/1
f 32/8/1 17/7/1 16/9/1 31/10/1
f 31/10/1 16/9/1 15/11/1 30/12/1
f 30/12/1 15/11/1 14/13/1 29/14/1
f 29/14/1 14/13/1 13/15/1 28/16/1
f 28/16/1 13/15/1 12/17/1 27/18/1
f 27/18/1 12/17/1 11/19/1 26/20/1
f 26/20/1 11/19/1 10/21/1 25/22/1
f 25/22/1 10/21/1 9/23/1 24/24/1
f 24/24/1 9/23/1 8/25/1 23/26/1
f 23/26/1 8/25/1 7/27/1 22/28/1
f 22/28/1 7/27/1 6/29/1 21/30/1
f 21/30/1 6/29/1 5/31/1 20/32/1
f 20/32/1 5/31/1 1/33/1 2/34/1
