# Blender v2.92.0 OBJ File: 'cochesyarreteras.blend'
# www.blender.org
mtllib curve1br.mtl
o Curve1borderr_Cube.018
v -79.999985 -2.456604 40.000004
v -79.999985 -2.456604 30.666664
v -79.999985 2.543396 40.000004
v -79.999985 2.543396 30.666664
v -40.000004 -2.456604 80.000000
v -30.666672 -2.456604 80.000000
v -40.000004 2.543396 80.000000
v -30.666672 2.543396 80.000000
v -72.174377 -2.456604 30.978317
v -65.211494 -2.456604 31.881548
v -59.061966 -2.456604 33.328789
v -53.676414 -2.456604 35.272457
v -49.005463 -2.456604 37.664982
v -44.999733 -2.456604 40.458778
v -41.609848 -2.456604 43.606270
v -38.786434 -2.456604 47.059891
v -36.480118 -2.456604 50.772053
v -34.641510 -2.456604 54.695187
v -33.221233 -2.456604 58.781708
v -32.169910 -2.456604 62.984047
v -31.438175 -2.456604 67.254623
v -30.976635 -2.456604 71.545853
v -30.735928 -2.456604 75.810165
v -72.174377 2.543396 30.978317
v -65.211494 2.543396 31.881544
v -59.061966 2.543396 33.328785
v -53.676414 2.543396 35.272457
v -49.005463 2.543396 37.664982
v -44.999733 2.543396 40.458775
v -41.609848 2.543396 43.606266
v -38.786434 2.543396 47.059883
v -36.480118 2.543396 50.772049
v -34.641510 2.543396 54.695183
v -33.221233 2.543396 58.781704
v -32.169910 2.543396 62.984043
v -31.438175 2.543396 67.254608
v -30.976635 2.543396 71.545853
v -30.735928 2.543396 75.810165
v -73.654892 2.543396 40.252693
v -68.009308 2.543396 40.985043
v -63.023205 2.543396 42.158482
v -58.656536 2.543396 43.734432
v -54.869274 2.543396 45.674313
v -51.621395 2.543396 47.939552
v -48.872849 2.543396 50.491573
v -46.583599 2.543396 53.291813
v -44.713608 2.543396 56.301674
v -43.222843 2.543396 59.482590
v -42.071270 2.543396 62.795986
v -41.218861 2.543396 66.203278
v -40.625561 2.543396 69.665909
v -40.251347 2.543396 73.145294
v -40.056179 2.543396 76.602852
v -40.056179 -2.456604 76.602844
v -40.251347 -2.456604 73.145287
v -40.625561 -2.456604 69.665901
v -41.218861 -2.456604 66.203278
v -42.071270 -2.456604 62.795982
v -43.222843 -2.456604 59.482590
v -44.713608 -2.456604 56.301674
v -46.583599 -2.456604 53.291813
v -48.872849 -2.456604 50.491573
v -51.621395 -2.456604 47.939552
v -54.869274 -2.456604 45.674313
v -58.656536 -2.456604 43.734432
v -63.023205 -2.456604 42.158482
v -68.009308 -2.456604 40.985043
v -73.654892 -2.456604 40.252693
vt 0.750000 0.750000
vt 0.750000 0.750000
vt 0.750000 0.750000
vt 0.750000 0.750000
vt 0.750000 0.750000
vt 0.750000 0.750000
vt 0.750000 0.750000
vt 0.750000 0.750000
vt 0.750000 0.750000
vt 0.750000 0.750000
vt 0.750000 0.750000
vt 0.750000 0.750000
vt 0.750000 0.750000
vt 0.750000 0.750000
vt 0.750000 0.750000
vt 0.750000 0.750000
vt 0.750000 0.750000
vt 0.750000 0.750000
vt 0.750000 0.750000
vt 0.750000 0.750000
vt 0.750000 0.750000
vt 0.750000 0.750000
vt 0.750000 0.750000
vt 0.750000 0.750000
vt 0.750000 0.750000
vt 0.750000 0.750000
vt 0.750000 0.750000
vt 0.750000 0.750000
vt 0.750000 0.750000
vt 0.750000 0.750000
vt 0.750000 0.750000
vt 0.750000 0.750000
vt 0.750000 0.750000
vt 0.750000 0.750000
vt 0.750000 0.750000
vt 0.750000 0.750000
vt 0.750000 0.750000
vt 0.750000 0.750000
vt 0.750000 0.750000
vt 0.750000 0.750000
vt 0.750000 0.750000
vt 0.750000 0.750000
vt 0.750000 0.750000
vt 0.750000 0.750000
vt 0.750000 0.750000
vt 0.750000 0.750000
vt 0.750000 0.750000
vt 0.750000 0.750000
vt 0.750000 0.750000
vt 0.750000 0.750000
vt 0.750000 0.750000
vt 0.750000 0.750000
vt 0.750000 0.750000
vt 0.750000 0.750000
vt 0.750000 0.750000
vt 0.750000 0.750000
vt 0.750000 0.750000
vt 0.750000 0.750000
vt 0.750000 0.750000
vt 0.750000 0.750000
vt 0.750000 0.750000
vt 0.750000 0.750000
vt 0.750000 0.750000
vt 0.750000 0.750000
vt 0.750000 0.750000
vt 0.750000 0.750000
vt 0.750000 0.750000
vt 0.750000 0.750000
vn -0.9999 -0.0000 0.0165
vn 0.0000 1.0000 0.0000
vn 0.9999 0.0000 -0.0165
vn 0.9984 0.0000 -0.0564
vn 0.9943 -0.0000 -0.1069
vn 0.9856 -0.0000 -0.1689
vn 0.9701 -0.0000 -0.2427
vn 0.9446 -0.0000 -0.3283
vn 0.9055 -0.0000 -0.4244
vn 0.8494 -0.0000 -0.5277
vn 0.7742 -0.0000 -0.6329
vn 0.6804 -0.0000 -0.7328
vn 0.5721 0.0000 -0.8202
vn 0.4559 0.0000 -0.8900
vn 0.3395 -0.0000 -0.9406
vn 0.2291 -0.0000 -0.9734
vn 0.1286 -0.0000 -0.9917
vn 0.0398 0.0000 -0.9992
vn -0.9984 -0.0000 0.0564
vn -0.9943 -0.0000 0.1069
vn -0.9856 -0.0000 0.1689
vn -0.9701 0.0000 0.2427
vn -0.9446 0.0000 0.3283
vn -0.9055 0.0000 0.4244
vn -0.8494 0.0000 0.5277
vn -0.7742 0.0000 0.6329
vn -0.6804 0.0000 0.7328
vn -0.5721 0.0000 0.8202
vn -0.4559 0.0000 0.8900
vn -0.3395 0.0000 0.9406
vn -0.2291 0.0000 0.9734
vn -0.1286 0.0000 0.9917
vn -0.0398 0.0000 0.9992
usemtl Material
s off
f 5/1/1 7/2/1 53/3/1 54/4/1
f 7/2/2 8/5/2 38/6/2 53/3/2
f 8/5/3 6/7/3 23/8/3 38/6/3
f 38/6/4 23/8/4 22/9/4 37/10/4
f 37/10/5 22/9/5 21/11/5 36/12/5
f 36/12/6 21/11/6 20/13/6 35/14/6
f 35/14/7 20/13/7 19/15/7 34/16/7
f 34/16/8 19/15/8 18/17/8 33/18/8
f 33/18/9 18/17/9 17/19/9 32/20/9
f 32/20/10 17/19/10 16/21/10 31/22/10
f 31/22/11 16/21/11 15/23/11 30/24/11
f 30/24/12 15/23/12 14/25/12 29/26/12
f 29/26/13 14/25/13 13/27/13 28/28/13
f 28/28/14 13/27/14 12/29/14 27/30/14
f 27/30/15 12/29/15 11/31/15 26/32/15
f 26/32/16 11/31/16 10/33/16 25/34/16
f 25/34/17 10/33/17 9/35/17 24/36/17
f 24/36/18 9/35/18 2/37/18 4/38/18
f 53/3/2 38/6/2 37/10/2 52/39/2
f 52/39/2 37/10/2 36/12/2 51/40/2
f 51/40/2 36/12/2 35/14/2 50/41/2
f 50/41/2 35/14/2 34/16/2 49/42/2
f 49/42/2 34/16/2 33/18/2 48/43/2
f 48/43/2 33/18/2 32/20/2 47/44/2
f 47/44/2 32/20/2 31/22/2 46/45/2
f 46/45/2 31/22/2 30/24/2 45/46/2
f 45/46/2 30/24/2 29/26/2 44/47/2
f 44/47/2 29/26/2 28/28/2 43/48/2
f 43/48/2 28/28/2 27/30/2 42/49/2
f 42/49/2 27/30/2 26/32/2 41/50/2
f 41/50/2 26/32/2 25/34/2 40/51/2
f 40/51/2 25/34/2 24/36/2 39/52/2
f 39/52/2 24/36/2 4/38/2 3/53/2
f 54/4/19 53/3/19 52/39/19 55/54/19
f 55/54/20 52/39/20 51/40/20 56/55/20
f 56/55/21 51/40/21 50/41/21 57/56/21
f 57/56/22 50/41/22 49/42/22 58/57/22
f 58/57/23 49/42/23 48/43/23 59/58/23
f 59/58/24 48/43/24 47/44/24 60/59/24
f 60/59/25 47/44/25 46/45/25 61/60/25
f 61/60/26 46/45/26 45/46/26 62/61/26
f 62/61/27 45/46/27 44/47/27 63/62/27
f 63/62/28 44/47/28 43/48/28 64/63/28
f 64/63/29 43/48/29 42/49/29 65/64/29
f 65/64/30 42/49/30 41/50/30 66/65/30
f 66/65/31 41/50/31 40/51/31 67/66/31
f 67/66/32 40/51/32 39/52/32 68/67/32
f 68/67/33 39/52/33 3/53/33 1/68/33
