# Blender v2.92.0 OBJ File: 'cochesyarreteras.blend'
# www.blender.org
mtllib Curve3b.mtl
o Curve3border_Cube.025
v -191.365433 -2.339860 35.549892
v -191.365433 -2.339860 -167.116821
v -191.365433 -2.339860 -157.783493
v -191.365433 -2.339860 26.216549
v -191.365433 2.660140 35.549892
v -191.365433 2.660140 -167.116821
v -191.365433 2.660140 26.216549
v -191.365433 2.660140 -157.783493
v 129.967880 -2.339860 154.216522
v -72.698814 -2.339860 154.216522
v -63.365471 -2.339860 154.216522
v 120.634544 -2.339860 154.216522
v 129.967880 2.660140 154.216522
v -72.698814 2.660140 154.216522
v 120.634544 2.660140 154.216522
v -63.365471 2.660140 154.216522
v -169.788513 -2.339860 27.135002
v -150.748734 -2.339860 29.790487
v -134.090607 -2.339860 34.033195
v -119.658630 -2.339860 39.713295
v -107.297348 -2.339860 46.680992
v -96.851257 -2.339860 54.786472
v -88.164886 -2.339860 63.879910
v -81.082726 -2.339860 73.811501
v -75.449310 -2.339860 84.431419
v -71.109169 -2.339860 95.589890
v -67.906807 -2.339860 107.137054
v -65.686729 -2.339860 118.923111
v -64.293472 -2.339860 130.798264
v -63.571541 -2.339860 142.612686
v -169.788513 2.660140 27.135002
v -150.748734 2.660140 29.790487
v -134.090607 2.660140 34.033188
v -119.658630 2.660140 39.713287
v -107.297348 2.660140 46.680984
v -96.851257 2.660140 54.786461
v -88.164886 2.660140 63.879898
v -81.082726 2.660140 73.811485
v -75.449310 2.660140 84.431419
v -71.109169 2.660140 95.589867
v -67.906807 2.660140 107.137032
v -65.686729 2.660140 118.923096
v -64.293472 2.660140 130.798218
v -63.571541 2.660140 142.612625
v -171.361847 2.660140 36.401371
v -153.710373 2.660140 38.863224
v -138.266891 2.660140 42.796558
v -124.887253 2.660140 48.062485
v -113.427315 2.660140 54.522121
v -103.742920 2.660140 62.036572
v -95.689926 2.660140 70.466949
v -89.124184 2.660140 79.674362
v -83.901550 2.660140 89.519897
v -79.877884 2.660140 99.864731
v -76.909019 2.660140 110.569916
v -74.850822 2.660140 121.496567
v -73.559143 2.660140 132.505798
v -72.889854 2.660140 143.458725
v -72.889854 -2.339860 143.458786
v -73.559143 -2.339860 132.505829
v -74.850822 -2.339860 121.496597
v -76.909019 -2.339860 110.569931
v -79.877884 -2.339860 99.864746
v -83.901550 -2.339860 89.519920
v -89.124184 -2.339860 79.674370
v -95.689926 -2.339860 70.466957
v -103.742920 -2.339860 62.036579
v -113.427315 -2.339860 54.522133
v -124.887253 -2.339860 48.062496
v -138.266891 -2.339860 42.796566
v -153.710373 -2.339860 38.863224
v -171.361847 -2.339860 36.401371
v 120.132187 -2.339860 125.932076
v 118.372467 -2.339860 97.134453
v 114.976387 -2.339860 68.188782
v 109.564972 -2.339860 39.460258
v 101.759224 -2.339860 11.314044
v 91.180115 -2.339860 -15.884689
v 77.448692 -2.339860 -41.770771
v 60.185963 -2.339860 -65.979027
v 39.012924 -2.339860 -88.144295
v 13.550582 -2.339860 -107.901398
v -16.580053 -2.339860 -124.885170
v -51.757992 -2.339860 -138.730438
v -92.362206 -2.339860 -149.072021
v -138.771683 -2.339860 -155.544769
v -138.771683 2.660140 -155.544769
v -92.362206 2.660140 -149.072021
v -51.757992 2.660140 -138.730438
v -16.580053 2.660140 -124.885170
v 13.550582 2.660140 -107.901398
v 39.012924 2.660140 -88.144295
v 60.185963 2.660140 -65.979027
v 77.448692 2.660140 -41.770771
v 91.180115 2.660140 -15.884689
v 101.759224 2.660140 11.314044
v 109.564972 2.660140 39.460258
v 114.976387 2.660140 68.188782
v 118.372467 2.660140 97.134453
v 120.132187 2.660140 125.932076
v -137.198486 2.660140 -164.811127
v -89.400681 2.660140 -158.144760
v -47.581795 2.660140 -147.493805
v -11.351515 2.660140 -133.234375
v 19.680475 2.660140 -115.742531
v 45.904518 2.660140 -95.394402
v 67.710953 2.660140 -72.566078
v 85.490112 2.660140 -47.633640
v 99.632301 2.660140 -20.973194
v 110.527878 2.660140 7.039170
v 118.567162 2.660140 36.027367
v 124.140472 2.660140 65.615288
v 127.638138 2.660140 95.426857
v 129.450500 2.660140 125.085960
v -137.198486 -2.339860 -164.811127
v -89.400681 -2.339860 -158.144760
v -47.581795 -2.339860 -147.493805
v -11.351515 -2.339860 -133.234375
v 19.680475 -2.339860 -115.742531
v 45.904518 -2.339860 -95.394402
v 67.710953 -2.339860 -72.566078
v 85.490112 -2.339860 -47.633640
v 99.632301 -2.339860 -20.973194
v 110.527878 -2.339860 7.039170
v 118.567162 -2.339860 36.027367
v 124.140472 -2.339860 65.615288
v 127.638138 -2.339860 95.426857
v 129.450500 -2.339860 125.085960
vt 0.750000 0.750000
vt 0.750000 0.750000
vt 0.750000 0.750000
vt 0.750000 0.750000
vt 0.750000 0.750000
vt 0.750000 0.750000
vt 0.750000 0.750000
vt 0.750000 0.750000
vt 0.750000 0.750000
vt 0.750000 0.750000
vt 0.750000 0.750000
vt 0.750000 0.750000
vt 0.750000 0.750000
vt 0.750000 0.750000
vt 0.750000 0.750000
vt 0.750000 0.750000
vt 0.750000 0.750000
vt 0.750000 0.750000
vt 0.750000 0.750000
vt 0.750000 0.750000
vt 0.750000 0.750000
vt 0.750000 0.750000
vt 0.750000 0.750000
vt 0.750000 0.750000
vt 0.750000 0.750000
vt 0.750000 0.750000
vt 0.750000 0.750000
vt 0.750000 0.750000
vt 0.750000 0.750000
vt 0.750000 0.750000
vt 0.750000 0.750000
vt 0.750000 0.750000
vt 0.750000 0.750000
vt 0.750000 0.750000
vt 0.750000 0.750000
vt 0.750000 0.750000
vt 0.750000 0.750000
vt 0.750000 0.750000
vt 0.750000 0.750000
vt 0.750000 0.750000
vt 0.750000 0.750000
vt 0.750000 0.750000
vt 0.750000 0.750000
vt 0.750000 0.750000
vt 0.750000 0.750000
vt 0.750000 0.750000
vt 0.750000 0.750000
vt 0.750000 0.750000
vt 0.750000 0.750000
vt 0.750000 0.750000
vt 0.750000 0.750000
vt 0.750000 0.750000
vt 0.750000 0.750000
vt 0.750000 0.750000
vt 0.750000 0.750000
vt 0.750000 0.750000
vt 0.750000 0.750000
vt 0.750000 0.750000
vt 0.750000 0.750000
vt 0.750000 0.750000
vt 0.750000 0.750000
vt 0.750000 0.750000
vt 0.750000 0.750000
vt 0.750000 0.750000
vt 0.750000 0.750000
vt 0.750000 0.750000
vt 0.750000 0.750000
vt 0.750000 0.750000
vt 0.750000 0.750000
vt 0.750000 0.750000
vt 0.750000 0.750000
vt 0.750000 0.750000
vt 0.750000 0.750000
vt 0.750000 0.750000
vt 0.750000 0.750000
vt 0.750000 0.750000
vt 0.750000 0.750000
vt 0.750000 0.750000
vt 0.750000 0.750000
vt 0.750000 0.750000
vt 0.750000 0.750000
vt 0.750000 0.750000
vt 0.750000 0.750000
vt 0.750000 0.750000
vt 0.750000 0.750000
vt 0.750000 0.750000
vt 0.750000 0.750000
vt 0.750000 0.750000
vt 0.750000 0.750000
vt 0.750000 0.750000
vt 0.750000 0.750000
vt 0.750000 0.750000
vt 0.750000 0.750000
vt 0.750000 0.750000
vt 0.750000 0.750000
vt 0.750000 0.750000
vt 0.750000 0.750000
vt 0.750000 0.750000
vt 0.750000 0.750000
vt 0.750000 0.750000
vt 0.750000 0.750000
vt 0.750000 0.750000
vt 0.750000 0.750000
vt 0.750000 0.750000
vt 0.750000 0.750000
vt 0.750000 0.750000
vt 0.750000 0.750000
vt 0.750000 0.750000
vt 0.750000 0.750000
vt 0.750000 0.750000
vt 0.750000 0.750000
vt 0.750000 0.750000
vt 0.750000 0.750000
vt 0.750000 0.750000
vt 0.750000 0.750000
vt 0.750000 0.750000
vt 0.750000 0.750000
vt 0.750000 0.750000
vt 0.750000 0.750000
vt 0.750000 0.750000
vt 0.750000 0.750000
vt 0.750000 0.750000
vt 0.750000 0.750000
vt 0.750000 0.750000
vt 0.750000 0.750000
vt 0.750000 0.750000
vt 0.750000 0.750000
vt 0.750000 0.750000
vn -0.9998 0.0000 0.0178
vn 0.0000 1.0000 0.0000
vn 0.9998 0.0000 -0.0178
vn 0.9981 -0.0000 -0.0610
vn 0.9932 -0.0000 -0.1165
vn 0.9827 -0.0000 -0.1851
vn 0.9636 -0.0000 -0.2672
vn 0.9320 0.0000 -0.3625
vn 0.8834 -0.0000 -0.4686
vn 0.8142 -0.0000 -0.5806
vn 0.7231 -0.0000 -0.6907
vn 0.6130 -0.0000 -0.7901
vn 0.4910 -0.0000 -0.8711
vn 0.3662 -0.0000 -0.9305
vn 0.2468 -0.0000 -0.9691
vn 0.1381 0.0000 -0.9904
vn 0.0425 0.0000 -0.9991
vn -0.9981 0.0000 0.0610
vn -0.9932 0.0000 0.1165
vn -0.9827 0.0000 0.1851
vn -0.9636 0.0000 0.2672
vn -0.9320 0.0000 0.3625
vn -0.8834 0.0000 0.4686
vn -0.8142 0.0000 0.5806
vn -0.7231 0.0000 0.6907
vn -0.6130 0.0000 0.7901
vn -0.4910 0.0000 0.8711
vn -0.3662 0.0000 0.9305
vn -0.2468 0.0000 0.9691
vn -0.1381 0.0000 0.9904
vn -0.0425 0.0000 0.9991
usemtl Material
s off
f 12/1/1 15/2/1 100/3/1 73/4/1
f 15/2/2 13/5/2 114/6/2 100/3/2
f 13/5/3 9/7/3 128/8/3 114/6/3
f 10/9/1 14/10/1 58/11/1 59/12/1
f 14/10/2 16/13/2 44/14/2 58/11/2
f 16/13/3 11/15/3 30/16/3 44/14/3
f 44/14/4 30/16/4 29/17/4 43/18/4
f 43/18/5 29/17/5 28/19/5 42/20/5
f 42/20/6 28/19/6 27/21/6 41/22/6
f 41/22/7 27/21/7 26/23/7 40/24/7
f 40/24/8 26/23/8 25/25/8 39/26/8
f 39/26/9 25/25/9 24/27/9 38/28/9
f 38/28/10 24/27/10 23/29/10 37/30/10
f 37/30/11 23/29/11 22/31/11 36/32/11
f 36/32/12 22/31/12 21/33/12 35/34/12
f 35/34/13 21/33/13 20/35/13 34/36/13
f 34/36/14 20/35/14 19/37/14 33/38/14
f 33/38/15 19/37/15 18/39/15 32/40/15
f 32/40/16 18/39/16 17/41/16 31/42/16
f 31/42/17 17/41/17 4/43/17 7/44/17
f 58/11/2 44/14/2 43/18/2 57/45/2
f 57/45/2 43/18/2 42/20/2 56/46/2
f 56/46/2 42/20/2 41/22/2 55/47/2
f 55/47/2 41/22/2 40/24/2 54/48/2
f 54/48/2 40/24/2 39/26/2 53/49/2
f 53/49/2 39/26/2 38/28/2 52/50/2
f 52/50/2 38/28/2 37/30/2 51/51/2
f 51/51/2 37/30/2 36/32/2 50/52/2
f 50/52/2 36/32/2 35/34/2 49/53/2
f 49/53/2 35/34/2 34/36/2 48/54/2
f 48/54/2 34/36/2 33/38/2 47/55/2
f 47/55/2 33/38/2 32/40/2 46/56/2
f 46/56/2 32/40/2 31/42/2 45/57/2
f 45/57/2 31/42/2 7/44/2 5/58/2
f 59/12/18 58/11/18 57/45/18 60/59/18
f 60/59/19 57/45/19 56/46/19 61/60/19
f 61/60/20 56/46/20 55/47/20 62/61/20
f 62/61/21 55/47/21 54/48/21 63/62/21
f 63/62/22 54/48/22 53/49/22 64/63/22
f 64/63/23 53/49/23 52/50/23 65/64/23
f 65/64/24 52/50/24 51/51/24 66/65/24
f 66/65/25 51/51/25 50/52/25 67/66/25
f 67/66/26 50/52/26 49/53/26 68/67/26
f 68/67/27 49/53/27 48/54/27 69/68/27
f 69/68/28 48/54/28 47/55/28 70/69/28
f 70/69/29 47/55/29 46/56/29 71/70/29
f 71/70/30 46/56/30 45/57/30 72/71/30
f 72/71/31 45/57/31 5/58/31 1/72/31
f 73/4/18 100/3/18 99/73/18 74/74/18
f 74/74/19 99/73/19 98/75/19 75/76/19
f 75/76/20 98/75/20 97/77/20 76/78/20
f 76/78/21 97/77/21 96/79/21 77/80/21
f 77/80/22 96/79/22 95/81/22 78/82/22
f 78/82/23 95/81/23 94/83/23 79/84/23
f 79/84/24 94/83/24 93/85/24 80/86/24
f 80/86/25 93/85/25 92/87/25 81/88/25
f 81/88/26 92/87/26 91/89/26 82/90/26
f 82/90/27 91/89/27 90/91/27 83/92/27
f 83/92/28 90/91/28 89/93/28 84/94/28
f 84/94/29 89/93/29 88/95/29 85/96/29
f 85/96/30 88/95/30 87/97/30 86/98/30
f 86/98/31 87/97/31 8/99/31 3/100/31
f 100/3/2 114/6/2 113/101/2 99/73/2
f 99/73/2 113/101/2 112/102/2 98/75/2
f 98/75/2 112/102/2 111/103/2 97/77/2
f 97/77/2 111/103/2 110/104/2 96/79/2
f 96/79/2 110/104/2 109/105/2 95/81/2
f 95/81/2 109/105/2 108/106/2 94/83/2
f 94/83/2 108/106/2 107/107/2 93/85/2
f 93/85/2 107/107/2 106/108/2 92/87/2
f 92/87/2 106/108/2 105/109/2 91/89/2
f 91/89/2 105/109/2 104/110/2 90/91/2
f 90/91/2 104/110/2 103/111/2 89/93/2
f 89/93/2 103/111/2 102/112/2 88/95/2
f 88/95/2 102/112/2 101/113/2 87/97/2
f 87/97/2 101/113/2 6/114/2 8/99/2
f 114/6/4 128/8/4 127/115/4 113/101/4
f 113/101/5 127/115/5 126/116/5 112/102/5
f 112/102/6 126/116/6 125/117/6 111/103/6
f 111/103/7 125/117/7 124/118/7 110/104/7
f 110/104/8 124/118/8 123/119/8 109/105/8
f 109/105/9 123/119/9 122/120/9 108/106/9
f 108/106/10 122/120/10 121/121/10 107/107/10
f 107/107/11 121/121/11 120/122/11 106/108/11
f 106/108/12 120/122/12 119/123/12 105/109/12
f 105/109/13 119/123/13 118/124/13 104/110/13
f 104/110/14 118/124/14 117/125/14 103/111/14
f 103/111/15 117/125/15 116/126/15 102/112/15
f 102/112/16 116/126/16 115/127/16 101/113/16
f 101/113/17 115/127/17 2/128/17 6/114/17
