# Blender v2.92.0 OBJ File: 'cochesyarreteras.blend'
# www.blender.org
mtllib curve1bl.mtl
o Curve1borderl_Cube.010
v -79.999985 -2.456604 -39.999996
v -79.999985 -2.456604 -30.666656
v -79.999985 2.543396 -39.999996
v -79.999985 2.543396 -30.666656
v 39.999977 -2.456604 80.000000
v 30.666651 -2.456604 80.000000
v 39.999977 2.543396 80.000000
v 30.666651 2.543396 80.000000
v -60.964706 -2.456604 -39.241924
v -44.027969 -2.456604 -37.044872
v -29.069654 -2.456604 -33.524559
v -15.969665 -2.456604 -28.796721
v -4.607896 -2.456604 -22.977076
v 5.135757 -2.456604 -16.181355
v 13.381415 -2.456604 -8.525286
v 20.249166 -2.456604 -0.124594
v 25.859137 -2.456604 8.904988
v 30.331430 -2.456604 18.447742
v 33.786156 -2.456604 28.387930
v 36.343414 -2.456604 38.609840
v 38.123318 -2.456604 48.997726
v 39.245983 -2.456604 59.435879
v 39.831501 -2.456604 69.808548
v -60.964706 2.543396 -39.241920
v -44.027969 2.543396 -37.044865
v -29.069664 2.543396 -33.524559
v -15.969684 2.543396 -28.796715
v -4.607924 2.543396 -22.977070
v 5.135738 2.543396 -16.181351
v 13.381396 2.543396 -8.525281
v 20.249147 2.543396 -0.124594
v 25.859118 2.543396 8.904988
v 30.331411 2.543396 18.447739
v 33.786133 2.543396 28.387922
v 36.343391 2.543396 38.609818
v 38.123299 2.543396 48.997696
v 39.245964 2.543396 59.435841
v 39.831482 2.543396 69.808502
v -62.445229 2.543396 -29.967554
v -46.825790 2.543396 -27.941378
v -33.030910 2.543396 -24.694870
v -20.949812 2.543396 -20.334749
v -10.471744 2.543396 -14.967742
v -1.485928 2.543396 -8.700575
v 6.118405 2.543396 -1.639977
v 12.452003 2.543396 6.107324
v 17.625648 2.543396 14.434608
v 21.750099 2.543396 23.235147
v 24.936115 2.543396 32.402206
v 27.294476 2.543396 41.829071
v 28.935940 2.543396 51.409012
v 29.971287 2.543396 61.035305
v 30.511278 2.543396 70.601204
v -62.445229 -2.456604 -29.967554
v -46.825783 -2.456604 -27.941378
v -33.030891 -2.456604 -24.694870
v -20.949793 -2.456604 -20.334749
v -10.471715 -2.456604 -14.967747
v -1.485899 -2.456604 -8.700580
v 6.118424 -2.456604 -1.639982
v 12.452022 -2.456604 6.107319
v 17.625668 -2.456604 14.434602
v 21.750118 -2.456604 23.235138
v 24.936134 -2.456604 32.402195
v 27.294495 -2.456604 41.829063
v 28.935959 -2.456604 51.408997
v 29.971287 -2.456604 61.035286
v 30.511259 -2.456604 70.601189
vt 0.750000 0.750000
vt 0.750000 0.750000
vt 0.750000 0.750000
vt 0.750000 0.750000
vt 0.750000 0.750000
vt 0.750000 0.750000
vt 0.750000 0.750000
vt 0.750000 0.750000
vt 0.750000 0.750000
vt 0.750000 0.750000
vt 0.750000 0.750000
vt 0.750000 0.750000
vt 0.750000 0.750000
vt 0.750000 0.750000
vt 0.750000 0.750000
vt 0.750000 0.750000
vt 0.750000 0.750000
vt 0.750000 0.750000
vt 0.750000 0.750000
vt 0.750000 0.750000
vt 0.750000 0.750000
vt 0.750000 0.750000
vt 0.750000 0.750000
vt 0.750000 0.750000
vt 0.750000 0.750000
vt 0.750000 0.750000
vt 0.750000 0.750000
vt 0.750000 0.750000
vt 0.750000 0.750000
vt 0.750000 0.750000
vt 0.750000 0.750000
vt 0.750000 0.750000
vt 0.750000 0.750000
vt 0.750000 0.750000
vt 0.750000 0.750000
vt 0.750000 0.750000
vt 0.750000 0.750000
vt 0.750000 0.750000
vt 0.750000 0.750000
vt 0.750000 0.750000
vt 0.750000 0.750000
vt 0.750000 0.750000
vt 0.750000 0.750000
vt 0.750000 0.750000
vt 0.750000 0.750000
vt 0.750000 0.750000
vt 0.750000 0.750000
vt 0.750000 0.750000
vt 0.750000 0.750000
vt 0.750000 0.750000
vt 0.750000 0.750000
vt 0.750000 0.750000
vt 0.750000 0.750000
vt 0.750000 0.750000
vt 0.750000 0.750000
vt 0.750000 0.750000
vt 0.750000 0.750000
vt 0.750000 0.750000
vt 0.750000 0.750000
vt 0.750000 0.750000
vt 0.750000 0.750000
vt 0.750000 0.750000
vt 0.750000 0.750000
vt 0.750000 0.750000
vt 0.750000 0.750000
vt 0.750000 0.750000
vt 0.750000 0.750000
vt 0.750000 0.750000
vn -0.9999 0.0000 0.0165
vn 0.0000 1.0000 0.0000
vn 0.9999 0.0000 -0.0165
vn 0.9984 0.0000 -0.0564
vn 0.9943 0.0000 -0.1069
vn 0.9856 0.0000 -0.1689
vn 0.9701 0.0000 -0.2427
vn 0.9446 0.0000 -0.3283
vn 0.9055 0.0000 -0.4244
vn 0.8494 0.0000 -0.5277
vn 0.7742 0.0000 -0.6329
vn 0.6804 0.0000 -0.7328
vn 0.5721 0.0000 -0.8202
vn 0.4559 0.0000 -0.8900
vn 0.3395 0.0000 -0.9406
vn 0.2291 0.0000 -0.9734
vn 0.1286 0.0000 -0.9917
vn 0.0398 0.0000 -0.9992
vn -0.9984 0.0000 0.0564
vn -0.9943 -0.0000 0.1069
vn -0.9856 -0.0000 0.1689
vn -0.9701 -0.0000 0.2427
vn -0.9446 -0.0000 0.3283
vn -0.9055 -0.0000 0.4244
vn -0.8494 -0.0000 0.5277
vn -0.7742 -0.0000 0.6329
vn -0.6804 -0.0000 0.7328
vn -0.5721 -0.0000 0.8202
vn -0.4559 -0.0000 0.8900
vn -0.3395 -0.0000 0.9406
vn -0.2291 -0.0000 0.9734
vn -0.1286 -0.0000 0.9917
vn -0.0398 0.0000 0.9992
usemtl Material
s off
f 6/1/1 8/2/1 53/3/1 68/4/1
f 8/2/2 7/5/2 38/6/2 53/3/2
f 7/5/3 5/7/3 23/8/3 38/6/3
f 38/6/4 23/8/4 22/9/4 37/10/4
f 37/10/5 22/9/5 21/11/5 36/12/5
f 36/12/6 21/11/6 20/13/6 35/14/6
f 35/14/7 20/13/7 19/15/7 34/16/7
f 34/16/8 19/15/8 18/17/8 33/18/8
f 33/18/9 18/17/9 17/19/9 32/20/9
f 32/20/10 17/19/10 16/21/10 31/22/10
f 31/22/11 16/21/11 15/23/11 30/24/11
f 30/24/12 15/23/12 14/25/12 29/26/12
f 29/26/13 14/25/13 13/27/13 28/28/13
f 28/28/14 13/27/14 12/29/14 27/30/14
f 27/30/15 12/29/15 11/31/15 26/32/15
f 26/32/16 11/31/16 10/33/16 25/34/16
f 25/34/17 10/33/17 9/35/17 24/36/17
f 24/36/18 9/35/18 1/37/18 3/38/18
f 53/3/2 38/6/2 37/10/2 52/39/2
f 52/39/2 37/10/2 36/12/2 51/40/2
f 51/40/2 36/12/2 35/14/2 50/41/2
f 50/41/2 35/14/2 34/16/2 49/42/2
f 49/42/2 34/16/2 33/18/2 48/43/2
f 48/43/2 33/18/2 32/20/2 47/44/2
f 47/44/2 32/20/2 31/22/2 46/45/2
f 46/45/2 31/22/2 30/24/2 45/46/2
f 45/46/2 30/24/2 29/26/2 44/47/2
f 44/47/2 29/26/2 28/28/2 43/48/2
f 43/48/2 28/28/2 27/30/2 42/49/2
f 42/49/2 27/30/2 26/32/2 41/50/2
f 41/50/2 26/32/2 25/34/2 40/51/2
f 40/51/2 25/34/2 24/36/2 39/52/2
f 39/52/2 24/36/2 3/38/2 4/53/2
f 68/4/19 53/3/19 52/39/19 67/54/19
f 67/54/20 52/39/20 51/40/20 66/55/20
f 66/55/21 51/40/21 50/41/21 65/56/21
f 65/56/22 50/41/22 49/42/22 64/57/22
f 64/57/23 49/42/23 48/43/23 63/58/23
f 63/58/24 48/43/24 47/44/24 62/59/24
f 62/59/25 47/44/25 46/45/25 61/60/25
f 61/60/26 46/45/26 45/46/26 60/61/26
f 60/61/27 45/46/27 44/47/27 59/62/27
f 59/62/28 44/47/28 43/48/28 58/63/28
f 58/63/29 43/48/29 42/49/29 57/64/29
f 57/64/30 42/49/30 41/50/30 56/65/30
f 56/65/31 41/50/31 40/51/31 55/66/31
f 55/66/32 40/51/32 39/52/32 54/67/32
f 54/67/33 39/52/33 4/53/33 2/68/33
