# Blender v2.92.0 OBJ File: 'cochesyarreteras.blend'
# www.blender.org
mtllib curve4b.mtl
o Curve4border_Cube.029
v -79.999985 -2.285517 -122.666626
v -79.999985 -2.285517 -131.999969
v -79.999969 -2.285517 131.999939
v -79.999969 -2.285517 122.666595
v -79.999969 2.714483 131.999939
v -79.999969 2.714483 122.666595
v -79.999985 2.714483 -131.999969
v -79.999985 2.714483 -122.666626
v 87.333397 -2.285517 289.999969
v 78.000076 -2.285517 289.999969
v 342.000000 -2.285517 289.999969
v 332.666626 -2.285517 289.999969
v 342.000000 2.714483 289.999969
v 332.666626 2.714483 289.999969
v 78.000076 2.714483 289.999969
v 87.333397 2.714483 289.999969
v 77.778175 -2.285517 276.581177
v 77.007263 -2.285517 262.923828
v 75.529106 -2.285517 249.180283
v 73.185570 -2.285517 235.502899
v 69.818504 -2.285517 222.044052
v 65.269783 -2.285517 208.956146
v 59.381264 -2.285517 196.391525
v 51.994804 -2.285517 184.502563
v 42.952255 -2.285517 173.441650
v 32.095474 -2.285517 163.361176
v 19.266327 -2.285517 154.413452
v 4.306656 -2.285517 146.750931
v -12.941666 -2.285517 140.525940
v -32.636780 -2.285517 135.890854
v -54.936829 -2.285517 132.998077
v -54.936829 2.714483 132.998077
v -32.636780 2.714483 135.890854
v -12.941666 2.714483 140.525940
v 4.306656 2.714483 146.750931
v 19.266327 2.714483 154.413452
v 32.095474 2.714483 163.361176
v 42.952255 2.714483 173.441650
v 51.994804 2.714483 184.502563
v 59.381264 2.714483 196.391525
v 65.269783 2.714483 208.956146
v 69.818504 2.714483 222.044052
v 73.185570 2.714483 235.502899
v 75.529106 2.714483 249.180283
v 77.007263 2.714483 262.923828
v 77.778175 2.714483 276.581177
v -53.456299 2.714483 123.723679
v -29.838943 2.714483 126.787346
v -8.980408 2.714483 131.696228
v 9.286804 2.714483 138.288940
v 25.130157 2.714483 146.404114
v 38.717163 2.714483 155.880371
v 50.215263 2.714483 166.556335
v 59.791992 2.714483 178.270645
v 67.614792 2.714483 190.861908
v 73.851158 2.714483 204.168762
v 78.668587 2.714483 218.029800
v 82.234543 2.714483 232.283676
v 84.716515 2.714483 246.769028
v 86.281990 2.714483 261.324432
v 87.098473 2.714483 275.788574
v -53.456299 -2.285517 123.723679
v -29.838943 -2.285517 126.787346
v -8.980408 -2.285517 131.696228
v 9.286804 -2.285517 138.288940
v 25.130157 -2.285517 146.404114
v 38.717163 -2.285517 155.880371
v 50.215263 -2.285517 166.556335
v 59.791992 -2.285517 178.270645
v 67.614792 -2.285517 190.861893
v 73.851158 -2.285517 204.168732
v 78.668587 -2.285517 218.029770
v 82.234543 -2.285517 232.283661
v 84.716515 -2.285517 246.768997
v 86.281990 -2.285517 261.324402
v 87.098473 -2.285517 275.788513
v -14.539734 -2.285517 -120.059708
v 43.703873 -2.285517 -112.504303
v 95.143845 -2.285517 -100.398331
v 140.193237 -2.285517 -84.139816
v 179.265091 -2.285517 -64.126694
v 212.772446 -2.285517 -40.756966
v 241.128342 -2.285517 -14.428596
v 264.745819 -2.285517 14.460442
v 284.037903 -2.285517 45.512180
v 299.417603 -2.285517 78.328636
v 311.297974 -2.285517 112.511841
v 320.092133 -2.285517 147.663818
v 326.213013 -2.285517 183.386597
v 330.073669 -2.285517 219.282211
v 332.087158 -2.285517 254.952682
v -14.539734 2.714483 -120.059708
v 43.703873 2.714483 -112.504303
v 95.143845 2.714483 -100.398331
v 140.193237 2.714483 -84.139816
v 179.265091 2.714483 -64.126694
v 212.772446 2.714483 -40.756966
v 241.128342 2.714483 -14.428596
v 264.745819 2.714483 14.460442
v 284.037903 2.714483 45.512180
v 299.417603 2.714483 78.328636
v 311.297974 2.714483 112.511841
v 320.092133 2.714483 147.663818
v 326.213013 2.714483 183.386597
v 330.073669 2.714483 219.282211
v 332.087158 2.714483 254.952682
v -13.059219 2.714483 -129.334106
v 46.501686 2.714483 -121.607788
v 99.105080 2.714483 -109.228027
v 145.173370 2.714483 -92.601791
v 185.128937 2.714483 -72.136047
v 219.394104 2.714483 -48.237762
v 248.391327 2.714483 -21.313919
v 272.542969 2.714483 8.228493
v 292.271362 2.714483 39.982525
v 307.998932 2.714483 73.541191
v 320.148010 2.714483 108.497513
v 329.140991 2.714483 144.444519
v 335.400330 2.714483 180.975220
v 339.348297 2.714483 217.682693
v 341.407349 2.714483 254.159927
v -13.059219 -2.285517 -129.334106
v 46.501686 -2.285517 -121.607788
v 99.105080 -2.285517 -109.228027
v 145.173370 -2.285517 -92.601791
v 185.128937 -2.285517 -72.136047
v 219.394104 -2.285517 -48.237762
v 248.391327 -2.285517 -21.313919
v 272.542969 -2.285517 8.228493
v 292.271362 -2.285517 39.982525
v 307.998932 -2.285517 73.541191
v 320.148010 -2.285517 108.497513
v 329.140991 -2.285517 144.444519
v 335.400330 -2.285517 180.975220
v 339.348297 -2.285517 217.682693
v 341.407349 -2.285517 254.159927
vt 0.750000 0.750000
vt 0.750000 0.750000
vt 0.750000 0.750000
vt 0.750000 0.750000
vt 0.750000 0.750000
vt 0.750000 0.750000
vt 0.750000 0.750000
vt 0.750000 0.750000
vt 0.750000 0.750000
vt 0.750000 0.750000
vt 0.750000 0.750000
vt 0.750000 0.750000
vt 0.750000 0.750000
vt 0.750000 0.750000
vt 0.750000 0.750000
vt 0.750000 0.750000
vt 0.750000 0.750000
vt 0.750000 0.750000
vt 0.750000 0.750000
vt 0.750000 0.750000
vt 0.750000 0.750000
vt 0.750000 0.750000
vt 0.750000 0.750000
vt 0.750000 0.750000
vt 0.750000 0.750000
vt 0.750000 0.750000
vt 0.750000 0.750000
vt 0.750000 0.750000
vt 0.750000 0.750000
vt 0.750000 0.750000
vt 0.750000 0.750000
vt 0.750000 0.750000
vt 0.750000 0.750000
vt 0.750000 0.750000
vt 0.750000 0.750000
vt 0.750000 0.750000
vt 0.750000 0.750000
vt 0.750000 0.750000
vt 0.750000 0.750000
vt 0.750000 0.750000
vt 0.750000 0.750000
vt 0.750000 0.750000
vt 0.750000 0.750000
vt 0.750000 0.750000
vt 0.750000 0.750000
vt 0.750000 0.750000
vt 0.750000 0.750000
vt 0.750000 0.750000
vt 0.750000 0.750000
vt 0.750000 0.750000
vt 0.750000 0.750000
vt 0.750000 0.750000
vt 0.750000 0.750000
vt 0.750000 0.750000
vt 0.750000 0.750000
vt 0.750000 0.750000
vt 0.750000 0.750000
vt 0.750000 0.750000
vt 0.750000 0.750000
vt 0.750000 0.750000
vt 0.750000 0.750000
vt 0.750000 0.750000
vt 0.750000 0.750000
vt 0.750000 0.750000
vt 0.750000 0.750000
vt 0.750000 0.750000
vt 0.750000 0.750000
vt 0.750000 0.750000
vt 0.750000 0.750000
vt 0.750000 0.750000
vt 0.750000 0.750000
vt 0.750000 0.750000
vt 0.750000 0.750000
vt 0.750000 0.750000
vt 0.750000 0.750000
vt 0.750000 0.750000
vt 0.750000 0.750000
vt 0.750000 0.750000
vt 0.750000 0.750000
vt 0.750000 0.750000
vt 0.750000 0.750000
vt 0.750000 0.750000
vt 0.750000 0.750000
vt 0.750000 0.750000
vt 0.750000 0.750000
vt 0.750000 0.750000
vt 0.750000 0.750000
vt 0.750000 0.750000
vt 0.750000 0.750000
vt 0.750000 0.750000
vt 0.750000 0.750000
vt 0.750000 0.750000
vt 0.750000 0.750000
vt 0.750000 0.750000
vt 0.750000 0.750000
vt 0.750000 0.750000
vt 0.750000 0.750000
vt 0.750000 0.750000
vt 0.750000 0.750000
vt 0.750000 0.750000
vt 0.750000 0.750000
vt 0.750000 0.750000
vt 0.750000 0.750000
vt 0.750000 0.750000
vt 0.750000 0.750000
vt 0.750000 0.750000
vt 0.750000 0.750000
vt 0.750000 0.750000
vt 0.750000 0.750000
vt 0.750000 0.750000
vt 0.750000 0.750000
vt 0.750000 0.750000
vt 0.750000 0.750000
vt 0.750000 0.750000
vt 0.750000 0.750000
vt 0.750000 0.750000
vt 0.750000 0.750000
vt 0.750000 0.750000
vt 0.750000 0.750000
vt 0.750000 0.750000
vt 0.750000 0.750000
vt 0.750000 0.750000
vt 0.750000 0.750000
vt 0.750000 0.750000
vt 0.750000 0.750000
vt 0.750000 0.750000
vt 0.750000 0.750000
vt 0.750000 0.750000
vt 0.750000 0.750000
vt 0.750000 0.750000
vt 0.750000 0.750000
vt 0.750000 0.750000
vt 0.750000 0.750000
vt 0.750000 0.750000
vt 0.750000 0.750000
vt 0.750000 0.750000
vn -0.9999 0.0000 0.0165
vn 0.0000 1.0000 0.0000
vn 0.9999 0.0000 -0.0165
vn -0.9984 0.0000 0.0564
vn -0.9943 0.0000 0.1069
vn -0.9856 0.0000 0.1689
vn -0.9701 0.0000 0.2427
vn -0.9446 0.0000 0.3283
vn -0.9055 0.0000 0.4244
vn -0.8494 0.0000 0.5277
vn -0.7742 0.0000 0.6329
vn -0.6804 0.0000 0.7328
vn -0.5721 0.0000 0.8202
vn -0.4559 0.0000 0.8900
vn -0.3395 0.0000 0.9406
vn -0.2291 0.0000 0.9734
vn -0.1286 0.0000 0.9917
vn -0.0398 0.0000 0.9992
vn 0.9984 0.0000 -0.0564
vn 0.9943 0.0000 -0.1069
vn 0.9856 -0.0000 -0.1689
vn 0.9701 0.0000 -0.2427
vn 0.9446 0.0000 -0.3283
vn 0.9055 0.0000 -0.4244
vn 0.8494 0.0000 -0.5277
vn 0.7742 0.0000 -0.6329
vn 0.6804 0.0000 -0.7328
vn 0.5721 0.0000 -0.8202
vn 0.4559 0.0000 -0.8900
vn 0.3395 0.0000 -0.9406
vn 0.2291 0.0000 -0.9734
vn 0.1286 0.0000 -0.9917
vn 0.0398 0.0000 -0.9992
usemtl Material
s off
f 10/1/1 15/2/1 46/3/1 17/4/1
f 15/2/2 16/5/2 61/6/2 46/3/2
f 16/5/3 9/7/3 76/8/3 61/6/3
f 12/9/1 14/10/1 106/11/1 91/12/1
f 14/10/2 13/13/2 121/14/2 106/11/2
f 13/13/3 11/15/3 136/16/3 121/14/3
f 17/4/4 46/3/4 45/17/4 18/18/4
f 18/18/5 45/17/5 44/19/5 19/20/5
f 19/20/6 44/19/6 43/21/6 20/22/6
f 20/22/7 43/21/7 42/23/7 21/24/7
f 21/24/8 42/23/8 41/25/8 22/26/8
f 22/26/9 41/25/9 40/27/9 23/28/9
f 23/28/10 40/27/10 39/29/10 24/30/10
f 24/30/11 39/29/11 38/31/11 25/32/11
f 25/32/12 38/31/12 37/33/12 26/34/12
f 26/34/13 37/33/13 36/35/13 27/36/13
f 27/36/14 36/35/14 35/37/14 28/38/14
f 28/38/15 35/37/15 34/39/15 29/40/15
f 29/40/16 34/39/16 33/41/16 30/42/16
f 30/42/17 33/41/17 32/43/17 31/44/17
f 31/44/18 32/43/18 5/45/18 3/46/18
f 46/3/2 61/6/2 60/47/2 45/17/2
f 45/17/2 60/47/2 59/48/2 44/19/2
f 44/19/2 59/48/2 58/49/2 43/21/2
f 43/21/2 58/49/2 57/50/2 42/23/2
f 42/23/2 57/50/2 56/51/2 41/25/2
f 41/25/2 56/51/2 55/52/2 40/27/2
f 40/27/2 55/52/2 54/53/2 39/29/2
f 39/29/2 54/53/2 53/54/2 38/31/2
f 38/31/2 53/54/2 52/55/2 37/33/2
f 37/33/2 52/55/2 51/56/2 36/35/2
f 36/35/2 51/56/2 50/57/2 35/37/2
f 35/37/2 50/57/2 49/58/2 34/39/2
f 34/39/2 49/58/2 48/59/2 33/41/2
f 33/41/2 48/59/2 47/60/2 32/43/2
f 32/43/2 47/60/2 6/61/2 5/45/2
f 61/6/19 76/8/19 75/62/19 60/47/19
f 60/47/20 75/62/20 74/63/20 59/48/20
f 59/48/21 74/63/21 73/64/21 58/49/21
f 58/49/22 73/64/22 72/65/22 57/50/22
f 57/50/23 72/65/23 71/66/23 56/51/23
f 56/51/24 71/66/24 70/67/24 55/52/24
f 55/52/25 70/67/25 69/68/25 54/53/25
f 54/53/26 69/68/26 68/69/26 53/54/26
f 53/54/27 68/69/27 67/70/27 52/55/27
f 52/55/28 67/70/28 66/71/28 51/56/28
f 51/56/29 66/71/29 65/72/29 50/57/29
f 50/57/30 65/72/30 64/73/30 49/58/30
f 49/58/31 64/73/31 63/74/31 48/59/31
f 48/59/32 63/74/32 62/75/32 47/60/32
f 47/60/33 62/75/33 4/76/33 6/61/33
f 91/12/4 106/11/4 105/77/4 90/78/4
f 90/78/5 105/77/5 104/79/5 89/80/5
f 89/80/6 104/79/6 103/81/6 88/82/6
f 88/82/7 103/81/7 102/83/7 87/84/7
f 87/84/8 102/83/8 101/85/8 86/86/8
f 86/86/9 101/85/9 100/87/9 85/88/9
f 85/88/10 100/87/10 99/89/10 84/90/10
f 84/90/11 99/89/11 98/91/11 83/92/11
f 83/92/12 98/91/12 97/93/12 82/94/12
f 82/94/13 97/93/13 96/95/13 81/96/13
f 81/96/14 96/95/14 95/97/14 80/98/14
f 80/98/15 95/97/15 94/99/15 79/100/15
f 79/100/16 94/99/16 93/101/16 78/102/16
f 78/102/17 93/101/17 92/103/17 77/104/17
f 77/104/18 92/103/18 8/105/18 1/106/18
f 106/11/2 121/14/2 120/107/2 105/77/2
f 105/77/2 120/107/2 119/108/2 104/79/2
f 104/79/2 119/108/2 118/109/2 103/81/2
f 103/81/2 118/109/2 117/110/2 102/83/2
f 102/83/2 117/110/2 116/111/2 101/85/2
f 101/85/2 116/111/2 115/112/2 100/87/2
f 100/87/2 115/112/2 114/113/2 99/89/2
f 99/89/2 114/113/2 113/114/2 98/91/2
f 98/91/2 113/114/2 112/115/2 97/93/2
f 97/93/2 112/115/2 111/116/2 96/95/2
f 96/95/2 111/116/2 110/117/2 95/97/2
f 95/97/2 110/117/2 109/118/2 94/99/2
f 94/99/2 109/118/2 108/119/2 93/101/2
f 93/101/2 108/119/2 107/120/2 92/103/2
f 92/103/2 107/120/2 7/121/2 8/105/2
f 121/14/19 136/16/19 135/122/19 120/107/19
f 120/107/20 135/122/20 134/123/20 119/108/20
f 119/108/21 134/123/21 133/124/21 118/109/21
f 118/109/22 133/124/22 132/125/22 117/110/22
f 117/110/23 132/125/23 131/126/23 116/111/23
f 116/111/24 131/126/24 130/127/24 115/112/24
f 115/112/25 130/127/25 129/128/25 114/113/25
f 114/113/26 129/128/26 128/129/26 113/114/26
f 113/114/27 128/129/27 127/130/27 112/115/27
f 112/115/28 127/130/28 126/131/28 111/116/28
f 111/116/29 126/131/29 125/132/29 110/117/29
f 110/117/30 125/132/30 124/133/30 109/118/30
f 109/118/31 124/133/31 123/134/31 108/119/31
f 108/119/32 123/134/32 122/135/32 107/120/32
f 107/120/33 122/135/33 2/136/33 7/121/33
