# Blender v2.92.0 OBJ File: 'cochesyarreteras.blend'
# www.blender.org
mtllib Curve1b.mtl
o Curve1border_Cube.010
v -70.531609 -2.456604 16.297651
v -70.531609 -2.456604 -63.702351
v -70.531609 -2.456604 -54.369011
v -70.531609 -2.456604 6.964314
v -70.531609 2.543396 16.297651
v -70.531609 2.543396 -63.702351
v -70.531609 2.543396 6.964314
v -70.531609 2.543396 -54.369011
v 49.468353 -2.456604 56.297642
v -30.531630 -2.456604 56.297646
v -21.198294 -2.456604 56.297646
v 40.135029 -2.456604 56.297646
v 49.468353 2.543396 56.297642
v -30.531630 2.543396 56.297646
v 40.135029 2.543396 56.297646
v -21.198294 2.543396 56.297646
v -51.496334 -2.456604 -62.944279
v -34.559593 -2.456604 -60.747231
v -19.601274 -2.456604 -57.226913
v -6.501289 -2.456604 -52.499077
v 4.860482 -2.456604 -46.679428
v 14.604134 -2.456604 -39.883709
v 22.849791 -2.456604 -32.227638
v 29.717543 -2.456604 -23.826948
v 35.327515 -2.456604 -14.797366
v 39.799809 -2.456604 -5.254613
v 43.254532 -2.456604 4.685578
v 45.811790 -2.456604 14.907482
v 47.591690 -2.456604 25.295372
v 48.714355 -2.456604 35.733521
v 49.299877 -2.456604 46.106190
v -51.496334 2.543396 -62.944275
v -34.559593 2.543396 -60.747223
v -19.601284 2.543396 -57.226913
v -6.501308 2.543396 -52.499069
v 4.860453 2.543396 -46.679424
v 14.604115 2.543396 -39.883705
v 22.849771 2.543396 -32.227634
v 29.717524 2.543396 -23.826948
v 35.327496 2.543396 -14.797366
v 39.799789 2.543396 -5.254617
v 43.254513 2.543396 4.685569
v 45.811771 2.543396 14.907465
v 47.591671 2.543396 25.295343
v 48.714336 2.543396 35.733482
v 49.299858 2.543396 46.106144
v -52.976856 2.543396 -53.669907
v -37.357414 2.543396 -51.643734
v -23.562532 2.543396 -48.397224
v -11.481434 2.543396 -44.037102
v -1.003366 2.543396 -38.670097
v 7.982450 2.543396 -32.402931
v 15.586782 2.543396 -25.342331
v 21.920380 2.543396 -17.595032
v 27.094025 2.543396 -9.267747
v 31.218475 2.543396 -0.467209
v 34.404491 2.543396 8.699853
v 36.762852 2.543396 18.126717
v 38.404316 2.543396 27.706657
v 39.439663 2.543396 37.332951
v 39.979656 2.543396 46.898849
v -52.976856 -2.456604 -53.669907
v -37.357407 -2.456604 -51.643734
v -23.562513 -2.456604 -48.397224
v -11.481415 -2.456604 -44.037102
v -1.003337 -2.456604 -38.670101
v 7.982479 -2.456604 -32.402935
v 15.586801 -2.456604 -25.342335
v 21.920399 -2.456604 -17.595037
v 27.094044 -2.456604 -9.267754
v 31.218494 -2.456604 -0.467219
v 34.404510 -2.456604 8.699843
v 36.762871 -2.456604 18.126707
v 38.404335 -2.456604 27.706642
v 39.439663 -2.456604 37.332932
v 39.979637 -2.456604 46.898834
v -62.705997 -2.456604 7.275965
v -55.743118 -2.456604 8.179197
v -49.593586 -2.456604 9.626435
v -44.208035 -2.456604 11.570105
v -39.537083 -2.456604 13.962626
v -35.531353 -2.456604 16.756424
v -32.141472 -2.456604 19.903921
v -29.318060 -2.456604 23.357538
v -27.011740 -2.456604 27.069702
v -25.173132 -2.456604 30.992834
v -23.752855 -2.456604 35.079353
v -22.701532 -2.456604 39.281693
v -21.969797 -2.456604 43.552265
v -21.508257 -2.456604 47.843494
v -21.267550 -2.456604 52.107811
v -62.705997 2.543396 7.275963
v -55.743118 2.543396 8.179194
v -49.593586 2.543396 9.626432
v -44.208035 2.543396 11.570103
v -39.537083 2.543396 13.962624
v -35.531353 2.543396 16.756420
v -32.141472 2.543396 19.903917
v -29.318060 2.543396 23.357534
v -27.011740 2.543396 27.069696
v -25.173132 2.543396 30.992830
v -23.752855 2.543396 35.079350
v -22.701532 2.543396 39.281689
v -21.969797 2.543396 43.552254
v -21.508257 2.543396 47.843494
v -21.267550 2.543396 52.107811
v -64.186508 2.543396 16.550341
v -58.540932 2.543396 17.282690
v -53.554825 2.543396 18.456129
v -49.188160 2.543396 20.032076
v -45.400902 2.543396 21.971960
v -42.153019 2.543396 24.237198
v -39.404472 2.543396 26.789221
v -37.115227 2.543396 29.589455
v -35.245232 2.543396 32.599316
v -33.754467 2.543396 35.780235
v -32.602898 2.543396 39.093632
v -31.750483 2.543396 42.500923
v -31.157183 2.543396 45.963554
v -30.782969 2.543396 49.442940
v -30.587801 2.543396 52.900497
v -30.587801 -2.456604 52.900486
v -30.782969 -2.456604 49.442932
v -31.157183 -2.456604 45.963547
v -31.750483 -2.456604 42.500923
v -32.602898 -2.456604 39.093628
v -33.754467 -2.456604 35.780235
v -35.245232 -2.456604 32.599316
v -37.115227 -2.456604 29.589455
v -39.404472 -2.456604 26.789221
v -42.153019 -2.456604 24.237198
v -45.400902 -2.456604 21.971960
v -49.188160 -2.456604 20.032076
v -53.554825 -2.456604 18.456129
v -58.540932 -2.456604 17.282690
v -64.186508 -2.456604 16.550341
vt 0.750000 0.750000
vt 0.750000 0.750000
vt 0.750000 0.750000
vt 0.750000 0.750000
vt 0.750000 0.750000
vt 0.750000 0.750000
vt 0.750000 0.750000
vt 0.750000 0.750000
vt 0.750000 0.750000
vt 0.750000 0.750000
vt 0.750000 0.750000
vt 0.750000 0.750000
vt 0.750000 0.750000
vt 0.750000 0.750000
vt 0.750000 0.750000
vt 0.750000 0.750000
vt 0.750000 0.750000
vt 0.750000 0.750000
vt 0.750000 0.750000
vt 0.750000 0.750000
vt 0.750000 0.750000
vt 0.750000 0.750000
vt 0.750000 0.750000
vt 0.750000 0.750000
vt 0.750000 0.750000
vt 0.750000 0.750000
vt 0.750000 0.750000
vt 0.750000 0.750000
vt 0.750000 0.750000
vt 0.750000 0.750000
vt 0.750000 0.750000
vt 0.750000 0.750000
vt 0.750000 0.750000
vt 0.750000 0.750000
vt 0.750000 0.750000
vt 0.750000 0.750000
vt 0.750000 0.750000
vt 0.750000 0.750000
vt 0.750000 0.750000
vt 0.750000 0.750000
vt 0.750000 0.750000
vt 0.750000 0.750000
vt 0.750000 0.750000
vt 0.750000 0.750000
vt 0.750000 0.750000
vt 0.750000 0.750000
vt 0.750000 0.750000
vt 0.750000 0.750000
vt 0.750000 0.750000
vt 0.750000 0.750000
vt 0.750000 0.750000
vt 0.750000 0.750000
vt 0.750000 0.750000
vt 0.750000 0.750000
vt 0.750000 0.750000
vt 0.750000 0.750000
vt 0.750000 0.750000
vt 0.750000 0.750000
vt 0.750000 0.750000
vt 0.750000 0.750000
vt 0.750000 0.750000
vt 0.750000 0.750000
vt 0.750000 0.750000
vt 0.750000 0.750000
vt 0.750000 0.750000
vt 0.750000 0.750000
vt 0.750000 0.750000
vt 0.750000 0.750000
vt 0.750000 0.750000
vt 0.750000 0.750000
vt 0.750000 0.750000
vt 0.750000 0.750000
vt 0.750000 0.750000
vt 0.750000 0.750000
vt 0.750000 0.750000
vt 0.750000 0.750000
vt 0.750000 0.750000
vt 0.750000 0.750000
vt 0.750000 0.750000
vt 0.750000 0.750000
vt 0.750000 0.750000
vt 0.750000 0.750000
vt 0.750000 0.750000
vt 0.750000 0.750000
vt 0.750000 0.750000
vt 0.750000 0.750000
vt 0.750000 0.750000
vt 0.750000 0.750000
vt 0.750000 0.750000
vt 0.750000 0.750000
vt 0.750000 0.750000
vt 0.750000 0.750000
vt 0.750000 0.750000
vt 0.750000 0.750000
vt 0.750000 0.750000
vt 0.750000 0.750000
vt 0.750000 0.750000
vt 0.750000 0.750000
vt 0.750000 0.750000
vt 0.750000 0.750000
vt 0.750000 0.750000
vt 0.750000 0.750000
vt 0.750000 0.750000
vt 0.750000 0.750000
vt 0.750000 0.750000
vt 0.750000 0.750000
vt 0.750000 0.750000
vt 0.750000 0.750000
vt 0.750000 0.750000
vt 0.750000 0.750000
vt 0.750000 0.750000
vt 0.750000 0.750000
vt 0.750000 0.750000
vt 0.750000 0.750000
vt 0.750000 0.750000
vt 0.750000 0.750000
vt 0.750000 0.750000
vt 0.750000 0.750000
vt 0.750000 0.750000
vt 0.750000 0.750000
vt 0.750000 0.750000
vt 0.750000 0.750000
vt 0.750000 0.750000
vt 0.750000 0.750000
vt 0.750000 0.750000
vt 0.750000 0.750000
vt 0.750000 0.750000
vt 0.750000 0.750000
vt 0.750000 0.750000
vt 0.750000 0.750000
vt 0.750000 0.750000
vt 0.750000 0.750000
vt 0.750000 0.750000
vt 0.750000 0.750000
vt 0.750000 0.750000
vt 0.750000 0.750000
vn -0.9999 0.0000 0.0165
vn 0.0000 1.0000 0.0000
vn 0.9999 0.0000 -0.0165
vn 0.9984 0.0000 -0.0564
vn 0.9943 0.0000 -0.1069
vn 0.9856 0.0000 -0.1689
vn 0.9701 0.0000 -0.2427
vn 0.9446 0.0000 -0.3283
vn 0.9055 0.0000 -0.4244
vn 0.8494 0.0000 -0.5277
vn 0.7742 0.0000 -0.6329
vn 0.6804 0.0000 -0.7328
vn 0.5721 0.0000 -0.8202
vn 0.4559 0.0000 -0.8900
vn 0.3395 0.0000 -0.9406
vn 0.2291 0.0000 -0.9734
vn 0.1286 0.0000 -0.9917
vn 0.0398 0.0000 -0.9992
vn -0.9984 0.0000 0.0564
vn -0.9943 -0.0000 0.1069
vn -0.9856 -0.0000 0.1689
vn -0.9701 -0.0000 0.2427
vn -0.9446 -0.0000 0.3283
vn -0.9055 -0.0000 0.4244
vn -0.8494 -0.0000 0.5277
vn -0.7742 -0.0000 0.6329
vn -0.6804 -0.0000 0.7328
vn -0.5721 -0.0000 0.8202
vn -0.4559 -0.0000 0.8900
vn -0.3395 -0.0000 0.9406
vn -0.2291 -0.0000 0.9734
vn -0.1286 -0.0000 0.9917
vn -0.0398 0.0000 0.9992
usemtl Material
s off
f 10/1/1 14/2/1 121/3/1 122/4/1
f 14/2/2 16/5/2 106/6/2 121/3/2
f 16/5/3 11/7/3 91/8/3 106/6/3
f 12/9/1 15/10/1 61/11/1 76/12/1
f 15/10/2 13/13/2 46/14/2 61/11/2
f 13/13/3 9/15/3 31/16/3 46/14/3
f 46/14/4 31/16/4 30/17/4 45/18/4
f 45/18/5 30/17/5 29/19/5 44/20/5
f 44/20/6 29/19/6 28/21/6 43/22/6
f 43/22/7 28/21/7 27/23/7 42/24/7
f 42/24/8 27/23/8 26/25/8 41/26/8
f 41/26/9 26/25/9 25/27/9 40/28/9
f 40/28/10 25/27/10 24/29/10 39/30/10
f 39/30/11 24/29/11 23/31/11 38/32/11
f 38/32/12 23/31/12 22/33/12 37/34/12
f 37/34/13 22/33/13 21/35/13 36/36/13
f 36/36/14 21/35/14 20/37/14 35/38/14
f 35/38/15 20/37/15 19/39/15 34/40/15
f 34/40/16 19/39/16 18/41/16 33/42/16
f 33/42/17 18/41/17 17/43/17 32/44/17
f 32/44/18 17/43/18 2/45/18 6/46/18
f 61/11/2 46/14/2 45/18/2 60/47/2
f 60/47/2 45/18/2 44/20/2 59/48/2
f 59/48/2 44/20/2 43/22/2 58/49/2
f 58/49/2 43/22/2 42/24/2 57/50/2
f 57/50/2 42/24/2 41/26/2 56/51/2
f 56/51/2 41/26/2 40/28/2 55/52/2
f 55/52/2 40/28/2 39/30/2 54/53/2
f 54/53/2 39/30/2 38/32/2 53/54/2
f 53/54/2 38/32/2 37/34/2 52/55/2
f 52/55/2 37/34/2 36/36/2 51/56/2
f 51/56/2 36/36/2 35/38/2 50/57/2
f 50/57/2 35/38/2 34/40/2 49/58/2
f 49/58/2 34/40/2 33/42/2 48/59/2
f 48/59/2 33/42/2 32/44/2 47/60/2
f 47/60/2 32/44/2 6/46/2 8/61/2
f 76/12/19 61/11/19 60/47/19 75/62/19
f 75/62/20 60/47/20 59/48/20 74/63/20
f 74/63/21 59/48/21 58/49/21 73/64/21
f 73/64/22 58/49/22 57/50/22 72/65/22
f 72/65/23 57/50/23 56/51/23 71/66/23
f 71/66/24 56/51/24 55/52/24 70/67/24
f 70/67/25 55/52/25 54/53/25 69/68/25
f 69/68/26 54/53/26 53/54/26 68/69/26
f 68/69/27 53/54/27 52/55/27 67/70/27
f 67/70/28 52/55/28 51/56/28 66/71/28
f 66/71/29 51/56/29 50/57/29 65/72/29
f 65/72/30 50/57/30 49/58/30 64/73/30
f 64/73/31 49/58/31 48/59/31 63/74/31
f 63/74/32 48/59/32 47/60/32 62/75/32
f 62/75/33 47/60/33 8/61/33 3/76/33
f 106/6/4 91/8/4 90/77/4 105/78/4
f 105/78/5 90/77/5 89/79/5 104/80/5
f 104/80/6 89/79/6 88/81/6 103/82/6
f 103/82/7 88/81/7 87/83/7 102/84/7
f 102/84/8 87/83/8 86/85/8 101/86/8
f 101/86/9 86/85/9 85/87/9 100/88/9
f 100/88/10 85/87/10 84/89/10 99/90/10
f 99/90/11 84/89/11 83/91/11 98/92/11
f 98/92/12 83/91/12 82/93/12 97/94/12
f 97/94/13 82/93/13 81/95/13 96/96/13
f 96/96/14 81/95/14 80/97/14 95/98/14
f 95/98/15 80/97/15 79/99/15 94/100/15
f 94/100/16 79/99/16 78/101/16 93/102/16
f 93/102/17 78/101/17 77/103/17 92/104/17
f 92/104/18 77/103/18 4/105/18 7/106/18
f 121/3/2 106/6/2 105/78/2 120/107/2
f 120/107/2 105/78/2 104/80/2 119/108/2
f 119/108/2 104/80/2 103/82/2 118/109/2
f 118/109/2 103/82/2 102/84/2 117/110/2
f 117/110/2 102/84/2 101/86/2 116/111/2
f 116/111/2 101/86/2 100/88/2 115/112/2
f 115/112/2 100/88/2 99/90/2 114/113/2
f 114/113/2 99/90/2 98/92/2 113/114/2
f 113/114/2 98/92/2 97/94/2 112/115/2
f 112/115/2 97/94/2 96/96/2 111/116/2
f 111/116/2 96/96/2 95/98/2 110/117/2
f 110/117/2 95/98/2 94/100/2 109/118/2
f 109/118/2 94/100/2 93/102/2 108/119/2
f 108/119/2 93/102/2 92/104/2 107/120/2
f 107/120/2 92/104/2 7/106/2 5/121/2
f 122/4/19 121/3/19 120/107/19 123/122/19
f 123/122/20 120/107/20 119/108/20 124/123/20
f 124/123/21 119/108/21 118/109/21 125/124/21
f 125/124/22 118/109/22 117/110/22 126/125/22
f 126/125/23 117/110/23 116/111/23 127/126/23
f 127/126/24 116/111/24 115/112/24 128/127/24
f 128/127/25 115/112/25 114/113/25 129/128/25
f 129/128/26 114/113/26 113/114/26 130/129/26
f 130/129/27 113/114/27 112/115/27 131/130/27
f 131/130/28 112/115/28 111/116/28 132/131/28
f 132/131/29 111/116/29 110/117/29 133/132/29
f 133/132/30 110/117/30 109/118/30 134/133/30
f 134/133/31 109/118/31 108/119/31 135/134/31
f 135/134/32 108/119/32 107/120/32 136/135/32
f 136/135/33 107/120/33 5/121/33 1/136/33
