# Blender v2.92.0 OBJ File: 'cochesyarreteras.blend'
# www.blender.org
mtllib curve3.mtl
o Curve3_Cube.003
v -79.999969 -2.339860 -91.999977
v -79.999985 -2.339860 91.999977
v 48.000011 -2.339860 220.000031
v 231.999969 -2.339860 220.000000
v 47.793922 -2.339860 208.396149
v 47.071991 -2.339860 196.581726
v 45.678734 -2.339860 184.706573
v 43.458656 -2.339860 172.920517
v 40.256294 -2.339860 161.373352
v 35.916153 -2.339860 150.214874
v 30.282761 -2.339860 139.594955
v 23.200623 -2.339860 129.663361
v 14.514252 -2.339860 120.569908
v 4.068161 -2.339860 112.464432
v -8.293129 -2.339860 105.496719
v -22.725098 -2.339860 99.816620
v -39.383255 -2.339860 95.573906
v -58.423050 -2.339860 92.918427
v -27.406174 -2.339860 -89.761314
v 19.003304 -2.339860 -83.288567
v 59.607491 -2.339860 -72.946968
v 94.785408 -2.339860 -59.101692
v 124.916046 -2.339860 -42.117912
v 150.378387 -2.339860 -22.360817
v 171.551422 -2.339860 -0.195549
v 188.814148 -2.339860 24.012714
v 202.545578 -2.339860 49.898796
v 213.124649 -2.339860 77.097527
v 220.930389 -2.339860 105.243744
v 226.341812 -2.339860 133.972260
v 229.737885 -2.339860 162.917938
v 231.497620 -2.339860 191.715561
vt 0.250000 0.687500
vt 0.250000 0.687500
vt 0.250000 0.687500
vt 0.250000 0.687500
vt 0.250000 0.687500
vt 0.250000 0.687500
vt 0.250000 0.687500
vt 0.250000 0.687500
vt 0.250000 0.687500
vt 0.250000 0.687500
vt 0.250000 0.687500
vt 0.250000 0.687500
vt 0.250000 0.687500
vt 0.250000 0.687500
vt 0.250000 0.687500
vt 0.250000 0.687500
vt 0.250000 0.687500
vt 0.250000 0.687500
vt 0.250000 0.687500
vt 0.250000 0.687500
vt 0.250000 0.687500
vt 0.250000 0.687500
vt 0.250000 0.687500
vt 0.250000 0.687500
vt 0.250000 0.687500
vt 0.250000 0.687500
vt 0.250000 0.687500
vt 0.250000 0.687500
vt 0.250000 0.687500
vt 0.250000 0.687500
vt 0.250000 0.687500
vt 0.250000 0.687500
vn 0.0000 1.0000 -0.0000
usemtl Material
s off
f 3/1/1 4/2/1 32/3/1 5/4/1
f 5/4/1 32/3/1 31/5/1 6/6/1
f 6/6/1 31/5/1 30/7/1 7/8/1
f 7/8/1 30/7/1 29/9/1 8/10/1
f 8/10/1 29/9/1 28/11/1 9/12/1
f 9/12/1 28/11/1 27/13/1 10/14/1
f 10/14/1 27/13/1 26/15/1 11/16/1
f 11/16/1 26/15/1 25/17/1 12/18/1
f 12/18/1 25/17/1 24/19/1 13/20/1
f 13/20/1 24/19/1 23/21/1 14/22/1
f 14/22/1 23/21/1 22/23/1 15/24/1
f 15/24/1 22/23/1 21/25/1 16/26/1
f 16/26/1 21/25/1 20/27/1 17/28/1
f 17/28/1 20/27/1 19/29/1 18/30/1
f 18/30/1 19/29/1 1/31/1 2/32/1
