# Blender v2.92.0 OBJ File: 'cochesyarreteras.blend'
# www.blender.org
mtllib curve3b.mtl
o Curve3border_Cube.025
v -79.999969 -2.339860 101.333374
v -79.999969 -2.339860 -101.333336
v -79.999969 -2.339860 -92.000008
v -79.999969 -2.339860 92.000031
v -79.999969 2.660140 101.333374
v -79.999969 2.660140 -101.333336
v -79.999969 2.660140 92.000031
v -79.999969 2.660140 -92.000008
v 241.333344 -2.339860 220.000000
v 38.666649 -2.339860 220.000000
v 47.999992 -2.339860 220.000000
v 232.000000 -2.339860 220.000000
v 241.333344 2.660140 220.000000
v 38.666649 2.660140 220.000000
v 232.000000 2.660140 220.000000
v 47.999992 2.660140 220.000000
v -58.423050 -2.339860 92.918488
v -39.383270 -2.339860 95.573975
v -22.725143 -2.339860 99.816681
v -8.293167 -2.339860 105.496780
v 4.068115 -2.339860 112.464478
v 14.514206 -2.339860 120.569962
v 23.200577 -2.339860 129.663391
v 30.282738 -2.339860 139.594986
v 35.916153 -2.339860 150.214905
v 40.256294 -2.339860 161.373383
v 43.458656 -2.339860 172.920532
v 45.678734 -2.339860 184.706604
v 47.071991 -2.339860 196.581757
v 47.793922 -2.339860 208.396179
v -58.423050 2.660140 92.918488
v -39.383270 2.660140 95.573975
v -22.725143 2.660140 99.816673
v -8.293167 2.660140 105.496773
v 4.068115 2.660140 112.464470
v 14.514206 2.660140 120.569946
v 23.200577 2.660140 129.663391
v 30.282738 2.660140 139.594971
v 35.916153 2.660140 150.214905
v 40.256294 2.660140 161.373352
v 43.458656 2.660140 172.920517
v 45.678734 2.660140 184.706573
v 47.071991 2.660140 196.581696
v 47.793922 2.660140 208.396118
v -59.996384 2.660140 102.184860
v -42.344910 2.660140 104.646713
v -26.901428 2.660140 108.580048
v -13.521790 2.660140 113.845970
v -2.061852 2.660140 120.305603
v 7.622543 2.660140 127.820053
v 15.675537 2.660140 136.250427
v 22.241280 2.660140 145.457855
v 27.463913 2.660140 155.303375
v 31.487579 2.660140 165.648224
v 34.456444 2.660140 176.353394
v 36.514641 2.660140 187.280060
v 37.806320 2.660140 198.289276
v 38.475609 2.660140 209.242218
v 38.475609 -2.339860 209.242279
v 37.806320 -2.339860 198.289307
v 36.514641 -2.339860 187.280090
v 34.456444 -2.339860 176.353424
v 31.487579 -2.339860 165.648224
v 27.463913 -2.339860 155.303406
v 22.241280 -2.339860 145.457855
v 15.675537 -2.339860 136.250443
v 7.622543 -2.339860 127.820068
v -2.061852 -2.339860 120.305618
v -13.521790 -2.339860 113.845978
v -26.901428 -2.339860 108.580048
v -42.344910 -2.339860 104.646713
v -59.996384 -2.339860 102.184860
v 231.497650 -2.339860 191.715561
v 229.737930 -2.339860 162.917938
v 226.341858 -2.339860 133.972260
v 220.930435 -2.339860 105.243744
v 213.124695 -2.339860 77.097527
v 202.545578 -2.339860 49.898796
v 188.814148 -2.339860 24.012714
v 171.551422 -2.339860 -0.195541
v 150.378387 -2.339860 -22.360809
v 124.916046 -2.339860 -42.117912
v 94.785408 -2.339860 -59.101685
v 59.607471 -2.339860 -72.946953
v 19.003258 -2.339860 -83.288536
v -27.406219 -2.339860 -89.761284
v -27.406219 2.660140 -89.761284
v 19.003258 2.660140 -83.288536
v 59.607471 2.660140 -72.946953
v 94.785408 2.660140 -59.101685
v 124.916046 2.660140 -42.117912
v 150.378387 2.660140 -22.360809
v 171.551422 2.660140 -0.195541
v 188.814148 2.660140 24.012714
v 202.545578 2.660140 49.898796
v 213.124695 2.660140 77.097527
v 220.930435 2.660140 105.243744
v 226.341858 2.660140 133.972260
v 229.737930 2.660140 162.917938
v 231.497650 2.660140 191.715561
v -25.833023 2.660140 -99.027641
v 21.964783 2.660140 -92.361275
v 63.783669 2.660140 -81.710320
v 100.013947 2.660140 -67.450890
v 131.045944 2.660140 -49.959045
v 157.269989 2.660140 -29.610916
v 179.076416 2.660140 -6.782593
v 196.855576 2.660140 18.149845
v 210.997772 2.660140 44.810291
v 221.893341 2.660140 72.822655
v 229.932617 2.660140 101.810852
v 235.505936 2.660140 131.398773
v 239.003601 2.660140 161.210342
v 240.815964 2.660140 190.869446
v -25.833023 -2.339860 -99.027641
v 21.964783 -2.339860 -92.361275
v 63.783669 -2.339860 -81.710320
v 100.013947 -2.339860 -67.450890
v 131.045944 -2.339860 -49.959045
v 157.269989 -2.339860 -29.610916
v 179.076416 -2.339860 -6.782593
v 196.855576 -2.339860 18.149845
v 210.997772 -2.339860 44.810291
v 221.893341 -2.339860 72.822655
v 229.932617 -2.339860 101.810852
v 235.505936 -2.339860 131.398773
v 239.003601 -2.339860 161.210342
v 240.815964 -2.339860 190.869446
vt 0.750000 0.750000
vt 0.750000 0.750000
vt 0.750000 0.750000
vt 0.750000 0.750000
vt 0.750000 0.750000
vt 0.750000 0.750000
vt 0.750000 0.750000
vt 0.750000 0.750000
vt 0.750000 0.750000
vt 0.750000 0.750000
vt 0.750000 0.750000
vt 0.750000 0.750000
vt 0.750000 0.750000
vt 0.750000 0.750000
vt 0.750000 0.750000
vt 0.750000 0.750000
vt 0.750000 0.750000
vt 0.750000 0.750000
vt 0.750000 0.750000
vt 0.750000 0.750000
vt 0.750000 0.750000
vt 0.750000 0.750000
vt 0.750000 0.750000
vt 0.750000 0.750000
vt 0.750000 0.750000
vt 0.750000 0.750000
vt 0.750000 0.750000
vt 0.750000 0.750000
vt 0.750000 0.750000
vt 0.750000 0.750000
vt 0.750000 0.750000
vt 0.750000 0.750000
vt 0.750000 0.750000
vt 0.750000 0.750000
vt 0.750000 0.750000
vt 0.750000 0.750000
vt 0.750000 0.750000
vt 0.750000 0.750000
vt 0.750000 0.750000
vt 0.750000 0.750000
vt 0.750000 0.750000
vt 0.750000 0.750000
vt 0.750000 0.750000
vt 0.750000 0.750000
vt 0.750000 0.750000
vt 0.750000 0.750000
vt 0.750000 0.750000
vt 0.750000 0.750000
vt 0.750000 0.750000
vt 0.750000 0.750000
vt 0.750000 0.750000
vt 0.750000 0.750000
vt 0.750000 0.750000
vt 0.750000 0.750000
vt 0.750000 0.750000
vt 0.750000 0.750000
vt 0.750000 0.750000
vt 0.750000 0.750000
vt 0.750000 0.750000
vt 0.750000 0.750000
vt 0.750000 0.750000
vt 0.750000 0.750000
vt 0.750000 0.750000
vt 0.750000 0.750000
vt 0.750000 0.750000
vt 0.750000 0.750000
vt 0.750000 0.750000
vt 0.750000 0.750000
vt 0.750000 0.750000
vt 0.750000 0.750000
vt 0.750000 0.750000
vt 0.750000 0.750000
vt 0.750000 0.750000
vt 0.750000 0.750000
vt 0.750000 0.750000
vt 0.750000 0.750000
vt 0.750000 0.750000
vt 0.750000 0.750000
vt 0.750000 0.750000
vt 0.750000 0.750000
vt 0.750000 0.750000
vt 0.750000 0.750000
vt 0.750000 0.750000
vt 0.750000 0.750000
vt 0.750000 0.750000
vt 0.750000 0.750000
vt 0.750000 0.750000
vt 0.750000 0.750000
vt 0.750000 0.750000
vt 0.750000 0.750000
vt 0.750000 0.750000
vt 0.750000 0.750000
vt 0.750000 0.750000
vt 0.750000 0.750000
vt 0.750000 0.750000
vt 0.750000 0.750000
vt 0.750000 0.750000
vt 0.750000 0.750000
vt 0.750000 0.750000
vt 0.750000 0.750000
vt 0.750000 0.750000
vt 0.750000 0.750000
vt 0.750000 0.750000
vt 0.750000 0.750000
vt 0.750000 0.750000
vt 0.750000 0.750000
vt 0.750000 0.750000
vt 0.750000 0.750000
vt 0.750000 0.750000
vt 0.750000 0.750000
vt 0.750000 0.750000
vt 0.750000 0.750000
vt 0.750000 0.750000
vt 0.750000 0.750000
vt 0.750000 0.750000
vt 0.750000 0.750000
vt 0.750000 0.750000
vt 0.750000 0.750000
vt 0.750000 0.750000
vt 0.750000 0.750000
vt 0.750000 0.750000
vt 0.750000 0.750000
vt 0.750000 0.750000
vt 0.750000 0.750000
vt 0.750000 0.750000
vt 0.750000 0.750000
vt 0.750000 0.750000
vt 0.750000 0.750000
vn -0.9998 0.0000 0.0178
vn 0.0000 1.0000 0.0000
vn 0.9998 0.0000 -0.0178
vn 0.9981 -0.0000 -0.0610
vn 0.9932 -0.0000 -0.1165
vn 0.9827 -0.0000 -0.1851
vn 0.9636 -0.0000 -0.2672
vn 0.9320 -0.0000 -0.3625
vn 0.8834 -0.0000 -0.4686
vn 0.8142 -0.0000 -0.5806
vn 0.7231 -0.0000 -0.6907
vn 0.6130 -0.0000 -0.7901
vn 0.4910 -0.0000 -0.8711
vn 0.3662 -0.0000 -0.9305
vn 0.2468 -0.0000 -0.9691
vn 0.1381 0.0000 -0.9904
vn 0.0425 0.0000 -0.9991
vn -0.9981 0.0000 0.0610
vn -0.9932 0.0000 0.1165
vn -0.9827 0.0000 0.1851
vn -0.9636 0.0000 0.2672
vn -0.9320 0.0000 0.3625
vn -0.8834 0.0000 0.4686
vn -0.8142 0.0000 0.5806
vn -0.7231 0.0000 0.6907
vn -0.6130 0.0000 0.7901
vn -0.4910 0.0000 0.8711
vn -0.3662 0.0000 0.9305
vn -0.2468 0.0000 0.9691
vn -0.1381 0.0000 0.9904
vn -0.0425 0.0000 0.9991
usemtl Material
s off
f 12/1/1 15/2/1 100/3/1 73/4/1
f 15/2/2 13/5/2 114/6/2 100/3/2
f 13/5/3 9/7/3 128/8/3 114/6/3
f 10/9/1 14/10/1 58/11/1 59/12/1
f 14/10/2 16/13/2 44/14/2 58/11/2
f 16/13/3 11/15/3 30/16/3 44/14/3
f 44/14/4 30/16/4 29/17/4 43/18/4
f 43/18/5 29/17/5 28/19/5 42/20/5
f 42/20/6 28/19/6 27/21/6 41/22/6
f 41/22/7 27/21/7 26/23/7 40/24/7
f 40/24/8 26/23/8 25/25/8 39/26/8
f 39/26/9 25/25/9 24/27/9 38/28/9
f 38/28/10 24/27/10 23/29/10 37/30/10
f 37/30/11 23/29/11 22/31/11 36/32/11
f 36/32/12 22/31/12 21/33/12 35/34/12
f 35/34/13 21/33/13 20/35/13 34/36/13
f 34/36/14 20/35/14 19/37/14 33/38/14
f 33/38/15 19/37/15 18/39/15 32/40/15
f 32/40/16 18/39/16 17/41/16 31/42/16
f 31/42/17 17/41/17 4/43/17 7/44/17
f 58/11/2 44/14/2 43/18/2 57/45/2
f 57/45/2 43/18/2 42/20/2 56/46/2
f 56/46/2 42/20/2 41/22/2 55/47/2
f 55/47/2 41/22/2 40/24/2 54/48/2
f 54/48/2 40/24/2 39/26/2 53/49/2
f 53/49/2 39/26/2 38/28/2 52/50/2
f 52/50/2 38/28/2 37/30/2 51/51/2
f 51/51/2 37/30/2 36/32/2 50/52/2
f 50/52/2 36/32/2 35/34/2 49/53/2
f 49/53/2 35/34/2 34/36/2 48/54/2
f 48/54/2 34/36/2 33/38/2 47/55/2
f 47/55/2 33/38/2 32/40/2 46/56/2
f 46/56/2 32/40/2 31/42/2 45/57/2
f 45/57/2 31/42/2 7/44/2 5/58/2
f 59/12/18 58/11/18 57/45/18 60/59/18
f 60/59/19 57/45/19 56/46/19 61/60/19
f 61/60/20 56/46/20 55/47/20 62/61/20
f 62/61/21 55/47/21 54/48/21 63/62/21
f 63/62/22 54/48/22 53/49/22 64/63/22
f 64/63/23 53/49/23 52/50/23 65/64/23
f 65/64/24 52/50/24 51/51/24 66/65/24
f 66/65/25 51/51/25 50/52/25 67/66/25
f 67/66/26 50/52/26 49/53/26 68/67/26
f 68/67/27 49/53/27 48/54/27 69/68/27
f 69/68/28 48/54/28 47/55/28 70/69/28
f 70/69/29 47/55/29 46/56/29 71/70/29
f 71/70/30 46/56/30 45/57/30 72/71/30
f 72/71/31 45/57/31 5/58/31 1/72/31
f 73/4/18 100/3/18 99/73/18 74/74/18
f 74/74/19 99/73/19 98/75/19 75/76/19
f 75/76/20 98/75/20 97/77/20 76/78/20
f 76/78/21 97/77/21 96/79/21 77/80/21
f 77/80/22 96/79/22 95/81/22 78/82/22
f 78/82/23 95/81/23 94/83/23 79/84/23
f 79/84/24 94/83/24 93/85/24 80/86/24
f 80/86/25 93/85/25 92/87/25 81/88/25
f 81/88/26 92/87/26 91/89/26 82/90/26
f 82/90/27 91/89/27 90/91/27 83/92/27
f 83/92/28 90/91/28 89/93/28 84/94/28
f 84/94/29 89/93/29 88/95/29 85/96/29
f 85/96/30 88/95/30 87/97/30 86/98/30
f 86/98/31 87/97/31 8/99/31 3/100/31
f 100/3/2 114/6/2 113/101/2 99/73/2
f 99/73/2 113/101/2 112/102/2 98/75/2
f 98/75/2 112/102/2 111/103/2 97/77/2
f 97/77/2 111/103/2 110/104/2 96/79/2
f 96/79/2 110/104/2 109/105/2 95/81/2
f 95/81/2 109/105/2 108/106/2 94/83/2
f 94/83/2 108/106/2 107/107/2 93/85/2
f 93/85/2 107/107/2 106/108/2 92/87/2
f 92/87/2 106/108/2 105/109/2 91/89/2
f 91/89/2 105/109/2 104/110/2 90/91/2
f 90/91/2 104/110/2 103/111/2 89/93/2
f 89/93/2 103/111/2 102/112/2 88/95/2
f 88/95/2 102/112/2 101/113/2 87/97/2
f 87/97/2 101/113/2 6/114/2 8/99/2
f 114/6/4 128/8/4 127/115/4 113/101/4
f 113/101/5 127/115/5 126/116/5 112/102/5
f 112/102/6 126/116/6 125/117/6 111/103/6
f 111/103/7 125/117/7 124/118/7 110/104/7
f 110/104/8 124/118/8 123/119/8 109/105/8
f 109/105/9 123/119/9 122/120/9 108/106/9
f 108/106/10 122/120/10 121/121/10 107/107/10
f 107/107/11 121/121/11 120/122/11 106/108/11
f 106/108/12 120/122/12 119/123/12 105/109/12
f 105/109/13 119/123/13 118/124/13 104/110/13
f 104/110/14 118/124/14 117/125/14 103/111/14
f 103/111/15 117/125/15 116/126/15 102/112/15
f 102/112/16 116/126/16 115/127/16 101/113/16
f 101/113/17 115/127/17 2/128/17 6/114/17
