# Blender v2.92.0 OBJ File: 'cochesyarreteras.blend'
# www.blender.org
mtllib curve2bl.mtl
o Curve2borderl_Cube.020
v -79.999962 -2.396815 -70.712677
v -79.999962 -2.396815 -61.379349
v -79.999962 2.603185 -70.712677
v -79.999962 2.603185 -61.379349
v 140.666672 -2.396815 149.953979
v 131.333328 -2.396815 149.953979
v 140.666672 2.603185 149.953979
v 131.333328 2.603185 149.953979
v -42.802277 -2.396815 -69.129311
v -9.978474 -2.396815 -64.551361
v 18.739466 -2.396815 -57.237114
v 43.619595 -2.396815 -47.444847
v 64.929947 -2.396815 -35.432816
v 82.938553 -2.396815 -21.459309
v 97.913544 -2.396815 -5.782598
v 110.122864 -2.396815 11.339055
v 119.834602 -2.396815 29.647375
v 127.316826 -2.396815 48.884083
v 132.837555 -2.396815 68.790909
v 136.664856 -2.396815 89.109573
v 139.066757 -2.396815 109.581833
v 140.311340 -2.396815 129.949402
v -42.802277 2.603185 -69.129311
v -9.978474 2.603185 -64.551361
v 18.739466 2.603185 -57.237114
v 43.619595 2.603185 -47.444847
v 64.929947 2.603185 -35.432816
v 82.938553 2.603185 -21.459314
v 97.913544 2.603185 -5.782603
v 110.122864 2.603185 11.339046
v 119.834602 2.603185 29.647356
v 127.316826 2.603185 48.884052
v 132.837555 2.603185 68.790878
v 136.664856 2.603185 89.109535
v 139.066757 2.603185 109.581795
v 140.311340 2.603185 129.949356
v -44.375595 2.603185 -59.862930
v -12.940109 2.603185 -55.478626
v 14.563153 2.603185 -48.473736
v 38.390945 2.603185 -39.095638
v 58.799938 2.603185 -27.591677
v 76.046875 2.603185 -14.209197
v 90.388443 2.603185 0.804455
v 102.081367 2.603185 17.201931
v 111.382339 2.603185 34.735878
v 118.548080 2.603185 53.158943
v 123.835304 2.603185 72.223793
v 127.500717 2.603185 91.683067
v 129.801041 2.603185 111.289429
v 130.992981 2.603185 130.795517
v 130.993057 -2.396815 130.795471
v 129.801117 -2.396815 111.289391
v 127.500778 -2.396815 91.683044
v 123.835342 -2.396815 72.223770
v 118.548119 -2.396815 53.158928
v 111.382362 -2.396815 34.735863
v 102.081383 -2.396815 17.201918
v 90.388443 -2.396815 0.804445
v 76.046875 -2.396815 -14.209207
v 58.799938 -2.396815 -27.591681
v 38.390945 -2.396815 -39.095638
v 14.563153 -2.396815 -48.473743
v -12.940109 -2.396815 -55.478626
v -44.375595 -2.396815 -59.862938
vt 0.750000 0.750000
vt 0.750000 0.750000
vt 0.750000 0.750000
vt 0.750000 0.750000
vt 0.750000 0.750000
vt 0.750000 0.750000
vt 0.750000 0.750000
vt 0.750000 0.750000
vt 0.750000 0.750000
vt 0.750000 0.750000
vt 0.750000 0.750000
vt 0.750000 0.750000
vt 0.750000 0.750000
vt 0.750000 0.750000
vt 0.750000 0.750000
vt 0.750000 0.750000
vt 0.750000 0.750000
vt 0.750000 0.750000
vt 0.750000 0.750000
vt 0.750000 0.750000
vt 0.750000 0.750000
vt 0.750000 0.750000
vt 0.750000 0.750000
vt 0.750000 0.750000
vt 0.750000 0.750000
vt 0.750000 0.750000
vt 0.750000 0.750000
vt 0.750000 0.750000
vt 0.750000 0.750000
vt 0.750000 0.750000
vt 0.750000 0.750000
vt 0.750000 0.750000
vt 0.750000 0.750000
vt 0.750000 0.750000
vt 0.750000 0.750000
vt 0.750000 0.750000
vt 0.750000 0.750000
vt 0.750000 0.750000
vt 0.750000 0.750000
vt 0.750000 0.750000
vt 0.750000 0.750000
vt 0.750000 0.750000
vt 0.750000 0.750000
vt 0.750000 0.750000
vt 0.750000 0.750000
vt 0.750000 0.750000
vt 0.750000 0.750000
vt 0.750000 0.750000
vt 0.750000 0.750000
vt 0.750000 0.750000
vt 0.750000 0.750000
vt 0.750000 0.750000
vt 0.750000 0.750000
vt 0.750000 0.750000
vt 0.750000 0.750000
vt 0.750000 0.750000
vt 0.750000 0.750000
vt 0.750000 0.750000
vt 0.750000 0.750000
vt 0.750000 0.750000
vt 0.750000 0.750000
vt 0.750000 0.750000
vt 0.750000 0.750000
vt 0.750000 0.750000
vn -0.9998 -0.0000 0.0178
vn 0.0000 1.0000 0.0000
vn 0.9998 -0.0000 -0.0178
vn 0.9981 -0.0000 -0.0610
vn 0.9932 -0.0000 -0.1165
vn 0.9827 -0.0000 -0.1851
vn 0.9636 -0.0000 -0.2672
vn 0.9320 -0.0000 -0.3625
vn 0.8834 -0.0000 -0.4686
vn 0.8142 -0.0000 -0.5806
vn 0.7231 -0.0000 -0.6907
vn 0.6130 -0.0000 -0.7901
vn 0.4910 0.0000 -0.8711
vn 0.3662 0.0000 -0.9305
vn 0.2468 0.0000 -0.9691
vn 0.1381 0.0000 -0.9904
vn 0.0425 0.0000 -0.9991
vn -0.9981 -0.0000 0.0610
vn -0.9932 -0.0000 0.1165
vn -0.9827 -0.0000 0.1851
vn -0.9636 -0.0000 0.2672
vn -0.9320 -0.0000 0.3625
vn -0.8834 -0.0000 0.4686
vn -0.8142 -0.0000 0.5806
vn -0.7231 -0.0000 0.6907
vn -0.6130 -0.0000 0.7901
vn -0.4910 -0.0000 0.8711
vn -0.3662 -0.0000 0.9305
vn -0.2468 -0.0000 0.9691
vn -0.1381 -0.0000 0.9904
vn -0.0425 -0.0000 0.9991
usemtl Material
s off
f 6/1/1 8/2/1 50/3/1 51/4/1
f 8/2/2 7/5/2 36/6/2 50/3/2
f 7/5/3 5/7/3 22/8/3 36/6/3
f 36/6/4 22/8/4 21/9/4 35/10/4
f 35/10/5 21/9/5 20/11/5 34/12/5
f 34/12/6 20/11/6 19/13/6 33/14/6
f 33/14/7 19/13/7 18/15/7 32/16/7
f 32/16/8 18/15/8 17/17/8 31/18/8
f 31/18/9 17/17/9 16/19/9 30/20/9
f 30/20/10 16/19/10 15/21/10 29/22/10
f 29/22/11 15/21/11 14/23/11 28/24/11
f 28/24/12 14/23/12 13/25/12 27/26/12
f 27/26/13 13/25/13 12/27/13 26/28/13
f 26/28/14 12/27/14 11/29/14 25/30/14
f 25/30/15 11/29/15 10/31/15 24/32/15
f 24/32/16 10/31/16 9/33/16 23/34/16
f 23/34/17 9/33/17 1/35/17 3/36/17
f 50/3/2 36/6/2 35/10/2 49/37/2
f 49/37/2 35/10/2 34/12/2 48/38/2
f 48/38/2 34/12/2 33/14/2 47/39/2
f 47/39/2 33/14/2 32/16/2 46/40/2
f 46/40/2 32/16/2 31/18/2 45/41/2
f 45/41/2 31/18/2 30/20/2 44/42/2
f 44/42/2 30/20/2 29/22/2 43/43/2
f 43/43/2 29/22/2 28/24/2 42/44/2
f 42/44/2 28/24/2 27/26/2 41/45/2
f 41/45/2 27/26/2 26/28/2 40/46/2
f 40/46/2 26/28/2 25/30/2 39/47/2
f 39/47/2 25/30/2 24/32/2 38/48/2
f 38/48/2 24/32/2 23/34/2 37/49/2
f 37/49/2 23/34/2 3/36/2 4/50/2
f 51/4/18 50/3/18 49/37/18 52/51/18
f 52/51/19 49/37/19 48/38/19 53/52/19
f 53/52/20 48/38/20 47/39/20 54/53/20
f 54/53/21 47/39/21 46/40/21 55/54/21
f 55/54/22 46/40/22 45/41/22 56/55/22
f 56/55/23 45/41/23 44/42/23 57/56/23
f 57/56/24 44/42/24 43/43/24 58/57/24
f 58/57/25 43/43/25 42/44/25 59/58/25
f 59/58/26 42/44/26 41/45/26 60/59/26
f 60/59/27 41/45/27 40/46/27 61/60/27
f 61/60/28 40/46/28 39/47/28 62/61/28
f 62/61/29 39/47/29 38/48/29 63/62/29
f 63/62/30 38/48/30 37/49/30 64/63/30
f 64/63/31 37/49/31 4/50/31 2/64/31
