# Blender v2.92.0 OBJ File: 'cochesyarreteras.blend'
# www.blender.org
mtllib straight4bl.mtl
o Straight4borderl_Cube.017
v -80.000000 2.563492 -131.999939
v -80.000000 2.563492 -122.666595
v 79.999992 -2.436508 -122.666595
v -80.000000 -2.436508 -122.666595
v -80.000000 -2.436508 -131.999939
v 79.999992 -2.436508 -131.999939
v 79.999992 2.563492 -131.999939
v 79.999992 2.563492 -122.666595
vt 0.750000 0.750000
vt 0.750000 0.750000
vt 0.750000 0.750000
vt 0.750000 0.750000
vt 0.750000 0.750000
vt 0.750000 0.750000
vt 0.750000 0.750000
vt 0.750000 0.750000
vn 0.0000 0.0000 1.0000
vn 0.0000 1.0000 0.0000
vn 0.0000 0.0000 -1.0000
usemtl Material
s off
f 4/1/1 3/2/1 8/3/1 2/4/1
f 1/5/2 2/4/2 8/3/2 7/6/2
f 6/7/3 5/8/3 1/5/3 7/6/3
