# Blender v2.92.0 OBJ File: 'cochesyarreteras.blend'
# www.blender.org
mtllib Straight4b.mtl
o Straight4border_Cube.007
v -80.000000 2.563492 -131.999939
v -80.000000 2.563492 -122.666595
v 79.999992 -2.436508 -122.666595
v -80.000000 -2.436508 -122.666595
v -80.000000 -2.436508 -131.999939
v 79.999992 -2.436508 -131.999939
v 80.000000 -2.436508 131.999985
v -79.999992 -2.436508 131.999985
v -79.999992 -2.436508 122.666634
v 80.000000 -2.436508 122.666634
v 80.000000 2.563492 131.999985
v -79.999992 2.563492 131.999985
v 80.000000 2.563492 122.666634
v -79.999992 2.563492 122.666634
v 79.999992 2.563492 -131.999939
v 79.999992 2.563492 -122.666595
vt 0.750000 0.750000
vt 0.750000 0.750000
vt 0.750000 0.750000
vt 0.750000 0.750000
vt 0.750000 0.750000
vt 0.750000 0.750000
vt 0.750000 0.750000
vt 0.750000 0.750000
vt 0.750000 0.750000
vt 0.750000 0.750000
vt 0.750000 0.750000
vt 0.750000 0.750000
vt 0.750000 0.750000
vt 0.750000 0.750000
vt 0.750000 0.750000
vt 0.750000 0.750000
vn 0.0000 0.0000 1.0000
vn 0.0000 1.0000 0.0000
vn 0.0000 0.0000 -1.0000
usemtl Material
s off
f 4/1/1 3/2/1 16/3/1 2/4/1
f 1/5/2 2/4/2 16/3/2 15/6/2
f 6/7/3 5/8/3 1/5/3 15/6/3
f 10/9/3 9/10/3 14/11/3 13/12/3
f 14/11/2 12/13/2 11/14/2 13/12/2
f 8/15/1 7/16/1 11/14/1 12/13/1
