# Blender v2.92.0 OBJ File: 'cochesyarreteras.blend'
# www.blender.org
mtllib straight2bl.mtl
o Straight2borderl_Cube.012
v -79.999992 2.563492 -61.333317
v -80.000000 2.563492 -70.666656
v 80.000000 2.563492 -70.666656
v 79.999992 2.563492 -61.333324
v 79.999992 -2.436508 -70.666649
v -79.999992 -2.436508 -70.666649
v -79.999992 -2.436508 -61.333313
v 79.999992 -2.436508 -61.333321
v -79.999992 2.563492 -61.333313
v -79.999992 2.563492 -70.666649
v 79.999992 2.563492 -70.666649
v 79.999992 2.563492 -61.333321
vt 0.750000 0.750000
vt 0.750000 0.750000
vt 0.750000 0.750000
vt 0.750000 0.750000
vt 0.750000 0.750000
vt 0.750000 0.750000
vt 0.750000 0.750000
vt 0.750000 0.750000
vt 0.750000 0.750000
vt 0.750000 0.750000
vt 0.750000 0.750000
vt 0.750000 0.750000
vn 0.0000 1.0000 -0.0000
vn 0.0000 0.0000 -1.0000
vn 0.0000 0.0000 1.0000
usemtl Material
s off
f 2/1/1 1/2/1 4/3/1 3/4/1
f 5/5/2 6/6/2 10/7/2 11/8/2
f 7/9/3 8/10/3 12/11/3 9/12/3
