# Blender v2.92.0 OBJ File: 'cochesyarreteras.blend'
# www.blender.org
mtllib straight2b.mtl
o Straight2border_Cube.015
v 80.000000 -2.436508 70.666672
v -80.000000 -2.436508 70.666672
v -79.999992 -2.436508 61.333340
v 79.999992 -2.436508 61.333332
v 80.000000 2.563492 70.666672
v -80.000000 2.563492 70.666672
v 79.999992 2.563492 61.333332
v -79.999992 2.563492 61.333340
v 80.000000 -2.436508 -70.666656
v -80.000000 -2.436508 -70.666656
v -79.999992 -2.436508 -61.333317
v 79.999992 -2.436508 -61.333324
v -79.999992 2.563492 -61.333317
v -80.000000 2.563492 -70.666656
v 80.000000 2.563492 -70.666656
v 79.999992 2.563492 -61.333324
vt 0.750000 0.750000
vt 0.750000 0.750000
vt 0.750000 0.750000
vt 0.750000 0.750000
vt 0.750000 0.750000
vt 0.750000 0.750000
vt 0.750000 0.750000
vt 0.750000 0.750000
vt 0.750000 0.750000
vt 0.750000 0.750000
vt 0.750000 0.750000
vt 0.750000 0.750000
vt 0.750000 0.750000
vt 0.750000 0.750000
vt 0.750000 0.750000
vt 0.750000 0.750000
vn -0.0000 0.0000 -1.0000
vn 0.0000 1.0000 0.0000
vn 0.0000 0.0000 1.0000
usemtl Material
s off
f 4/1/1 3/2/1 8/3/1 7/4/1
f 8/3/2 6/5/2 5/6/2 7/4/2
f 2/7/3 1/8/3 5/6/3 6/5/3
f 9/9/1 10/10/1 14/11/1 15/12/1
f 14/11/2 13/13/2 16/14/2 15/12/2
f 11/15/3 12/16/3 16/14/3 13/13/3
