# Blender v2.92.0 OBJ File: 'cochesyarreteras.blend'
# www.blender.org
mtllib straight3b.mtl
o Straight3border_Cube.021
v 80.000000 -2.436508 101.333374
v -79.999992 -2.436508 101.333374
v 79.999992 -2.436508 -101.333351
v -80.000000 -2.436508 -101.333351
v -79.999992 -2.436508 92.000031
v -80.000000 -2.436508 -92.000015
v 79.999992 -2.436508 -92.000015
v 80.000000 -2.436508 92.000031
v 80.000000 2.563492 101.333374
v -79.999992 2.563492 101.333374
v -80.000000 2.563492 -92.000015
v -80.000000 2.563492 -101.333351
v 79.999992 2.563492 -101.333351
v 80.000000 2.563492 92.000031
v -79.999992 2.563492 92.000031
v 79.999992 2.563492 -92.000015
vt 0.750000 0.750000
vt 0.750000 0.750000
vt 0.750000 0.750000
vt 0.750000 0.750000
vt 0.750000 0.750000
vt 0.750000 0.750000
vt 0.750000 0.750000
vt 0.750000 0.750000
vt 0.750000 0.750000
vt 0.750000 0.750000
vt 0.750000 0.750000
vt 0.750000 0.750000
vt 0.750000 0.750000
vt 0.750000 0.750000
vt 0.750000 0.750000
vt 0.750000 0.750000
vn 0.0000 0.0000 -1.0000
vn 0.0000 1.0000 0.0000
vn 0.0000 0.0000 1.0000
usemtl Material
s off
f 3/1/1 4/2/1 12/3/1 13/4/1
f 8/5/1 5/6/1 15/7/1 14/8/1
f 15/7/2 10/9/2 9/10/2 14/8/2
f 12/3/2 11/11/2 16/12/2 13/4/2
f 2/13/3 1/14/3 9/10/3 10/9/3
f 6/15/3 7/16/3 16/12/3 11/11/3
