# Blender v2.92.0 OBJ File: 'cochesyarreteras.blend'
# www.blender.org
mtllib straight2br.mtl
o Straight2borderr_Cube.015
v 80.000000 -2.436508 70.666672
v -80.000000 -2.436508 70.666672
v -79.999992 -2.436508 61.333340
v 79.999992 -2.436508 61.333332
v 80.000000 2.563492 70.666672
v -80.000000 2.563492 70.666672
v 79.999992 2.563492 61.333332
v -79.999992 2.563492 61.333340
vt 0.750000 0.750000
vt 0.750000 0.750000
vt 0.750000 0.750000
vt 0.750000 0.750000
vt 0.750000 0.750000
vt 0.750000 0.750000
vt 0.750000 0.750000
vt 0.750000 0.750000
vn -0.0000 0.0000 -1.0000
vn 0.0000 1.0000 0.0000
vn 0.0000 0.0000 1.0000
usemtl Material
s off
f 4/1/1 3/2/1 8/3/1 7/4/1
f 8/3/2 6/5/2 5/6/2 7/4/2
f 2/7/3 1/8/3 5/6/3 6/5/3
