# Blender v2.92.0 OBJ File: 'cochesyarreteras.blend'
# www.blender.org
mtllib Car5.mtl
o Car_05
v -35.941650 1.487442 17.733984
v -35.941650 10.475089 17.733986
v -35.941654 10.475094 -17.733215
v -35.941654 1.487447 -17.733217
v 17.548828 12.939594 -17.733223
v 40.597305 9.157051 -17.733223
v 38.521805 1.487447 -17.733225
v 17.548828 1.487447 -17.733225
v 40.597305 9.157047 17.733978
v 38.521812 1.487442 17.733976
v -19.988523 12.939590 17.733986
v -19.988523 1.487442 17.733984
v -19.988525 12.939594 -17.733223
v 17.548830 1.487442 17.733976
v -19.988525 1.487447 -17.733217
v 17.548830 12.939590 17.733978
v -17.960323 26.492516 17.733980
v 11.660290 26.492516 17.733980
v 11.660288 26.492523 -17.733221
v -17.960325 26.492523 -17.733221
v 24.641203 2.723063 -15.847383
v 29.910551 2.723063 -15.847383
v 29.592772 4.426237 -15.847383
v 29.910551 2.723063 -19.166582
v 29.592772 4.426238 -19.166582
v 24.641203 2.723063 -19.166582
v 28.677759 5.923982 -15.847383
v 28.677759 5.923983 -19.166580
v 27.275877 7.035649 -15.847383
v 27.275877 7.035650 -19.166580
v 25.556215 7.627155 -15.847383
v 25.556215 7.627155 -19.166580
v 23.726191 7.627155 -15.847383
v 23.726191 7.627155 -19.166580
v 22.006529 7.035649 -15.847383
v 22.006529 7.035650 -19.166580
v 20.604649 5.923982 -15.847383
v 20.604649 5.923983 -19.166580
v 19.689636 4.426237 -15.847383
v 19.689636 4.426238 -19.166582
v 19.371855 2.723063 -15.847383
v 19.371855 2.723063 -19.166582
v 19.689636 1.019891 -15.847383
v 19.689636 1.019891 -19.166582
v 20.604649 -0.477854 -15.847383
v 20.604649 -0.477855 -19.166582
v 22.006529 -1.589521 -15.847383
v 22.006529 -1.589521 -19.166582
v 23.726191 -2.181027 -15.847383
v 23.726191 -2.181027 -19.166582
v 25.556215 -2.181027 -15.847383
v 25.556215 -2.181027 -19.166582
v 27.275877 -1.589521 -15.847383
v 27.275877 -1.589521 -19.166582
v 28.677759 -0.477854 -15.847383
v 28.677759 -0.477855 -19.166582
v 29.592772 1.019891 -15.847383
v 29.592772 1.019891 -19.166582
v 24.641203 2.723060 19.677687
v 29.910551 2.723060 19.677687
v 29.592772 4.426232 19.677687
v 29.910551 2.723060 16.358488
v 29.592772 4.426232 16.358488
v 24.641203 2.723060 16.358488
v 28.677759 5.923977 19.677689
v 28.677759 5.923978 16.358490
v 27.275877 7.035645 19.677689
v 27.275877 7.035645 16.358490
v 25.556219 7.627151 19.677689
v 25.556219 7.627151 16.358490
v 23.726191 7.627151 19.677689
v 23.726191 7.627151 16.358490
v 22.006533 7.035645 19.677689
v 22.006529 7.035645 16.358490
v 20.604650 5.923977 19.677689
v 20.604650 5.923978 16.358490
v 19.689638 4.426232 19.677687
v 19.689636 4.426232 16.358488
v 19.371857 2.723060 19.677687
v 19.371857 2.723060 16.358488
v 19.689638 1.019887 19.677687
v 19.689636 1.019887 16.358488
v 20.604650 -0.477859 19.677687
v 20.604650 -0.477859 16.358488
v 22.006533 -1.589525 19.677687
v 22.006529 -1.589526 16.358488
v 23.726191 -2.181031 19.677687
v 23.726191 -2.181031 16.358488
v 25.556219 -2.181031 19.677687
v 25.556219 -2.181031 16.358488
v 27.275877 -1.589525 19.677687
v 27.275877 -1.589526 16.358488
v 28.677759 -0.477859 19.677687
v 28.677759 -0.477859 16.358488
v 29.592772 1.019887 19.677687
v 29.592772 1.019887 16.358488
v -18.883377 2.467600 -16.390009
v -13.614030 2.467600 -16.390009
v -13.931810 4.170773 -16.390009
v -13.614030 2.467600 -19.709208
v -13.931810 4.170773 -19.709208
v -18.883377 2.467600 -19.709208
v -14.846823 5.668518 -16.390007
v -14.846823 5.668519 -19.709206
v -16.248703 6.780185 -16.390007
v -16.248703 6.780186 -19.709206
v -17.968365 7.371691 -16.390007
v -17.968365 7.371691 -19.709206
v -19.798389 7.371691 -16.390007
v -19.798389 7.371691 -19.709206
v -21.518051 6.780185 -16.390007
v -21.518051 6.780186 -19.709206
v -22.919933 5.668518 -16.390007
v -22.919933 5.668519 -19.709206
v -23.834946 4.170773 -16.390009
v -23.834946 4.170773 -19.709208
v -24.152725 2.467600 -16.390009
v -24.152725 2.467600 -19.709208
v -23.834946 0.764427 -16.390009
v -23.834946 0.764426 -19.709208
v -22.919933 -0.733318 -16.390009
v -22.919933 -0.733318 -19.709208
v -21.518051 -1.844985 -16.390009
v -21.518051 -1.844985 -19.709208
v -19.798389 -2.436491 -16.390009
v -19.798389 -2.436491 -19.709208
v -17.968365 -2.436491 -16.390009
v -17.968365 -2.436491 -19.709208
v -16.248703 -1.844985 -16.390009
v -16.248703 -1.844985 -19.709208
v -14.846823 -0.733318 -16.390009
v -14.846823 -0.733318 -19.709208
v -13.931810 0.764427 -16.390009
v -13.931810 0.764426 -19.709208
v -18.883377 2.467596 19.135069
v -13.614028 2.467596 19.135069
v -13.931808 4.170768 19.135069
v -13.614029 2.467595 15.815871
v -13.931808 4.170769 15.815871
v -18.883377 2.467595 15.815871
v -14.846822 5.668514 19.135071
v -14.846822 5.668514 15.815871
v -16.248703 6.780180 19.135071
v -16.248703 6.780181 15.815871
v -17.968365 7.371687 19.135071
v -17.968365 7.371687 15.815871
v -19.798389 7.371687 19.135071
v -19.798389 7.371687 15.815871
v -21.518051 6.780180 19.135071
v -21.518051 6.780181 15.815871
v -22.919931 5.668514 19.135071
v -22.919931 5.668514 15.815871
v -23.834944 4.170768 19.135069
v -23.834944 4.170769 15.815871
v -24.152725 2.467596 19.135069
v -24.152725 2.467595 15.815871
v -23.834944 0.764422 19.135069
v -23.834944 0.764422 15.815870
v -22.919931 -0.733322 19.135069
v -22.919931 -0.733322 15.815870
v -21.518051 -1.844990 19.135069
v -21.518051 -1.844990 15.815870
v -19.798389 -2.436496 19.135069
v -19.798389 -2.436496 15.815870
v -17.968365 -2.436496 19.135069
v -17.968365 -2.436496 15.815870
v -16.248703 -1.844990 19.135069
v -16.248703 -1.844990 15.815870
v -14.846822 -0.733322 19.135069
v -14.846822 -0.733322 15.815870
v -13.931808 0.764422 19.135069
v -13.931808 0.764422 15.815870
vt 0.675888 0.924490
vt 0.675888 0.992178
vt 0.990779 0.992178
vt 0.990779 0.924490
vt 0.484130 0.298033
vt 0.688763 0.269546
vt 0.670336 0.211784
vt 0.484130 0.211784
vt 0.324112 0.431378
vt 0.324112 0.415747
vt 0.009221 0.415747
vt 0.009221 0.431378
vt 0.547125 0.094071
vt 0.688763 0.075510
vt 0.688763 0.007822
vt 0.547125 0.007822
vt 0.342554 0.415747
vt 0.342554 0.535893
vt 0.657446 0.535893
vt 0.657446 0.415747
vt 0.009221 0.589330
vt 0.324112 0.589330
vt 0.150859 0.211784
vt 0.150859 0.298033
vt 0.213854 0.007822
vt 0.027648 0.007822
vt 0.009221 0.065583
vt 0.213854 0.094071
vt 0.342554 0.818595
vt 0.342554 0.992178
vt 0.657446 0.992178
vt 0.657446 0.818595
vt 0.009221 0.872032
vt 0.324112 0.872032
vt 0.342554 0.551168
vt 0.342554 0.774247
vt 0.657446 0.774247
vt 0.657446 0.551168
vt 0.009221 0.211784
vt 0.009221 0.279472
vt 0.009221 0.992178
vt 0.324112 0.992178
vt 0.168866 0.400103
vt 0.431849 0.400103
vt 0.266135 0.196141
vt 0.529118 0.196141
vt 0.722671 0.603378
vt 0.675888 0.603378
vt 0.678709 0.616205
vt 0.865277 0.475903
vt 0.835808 0.475903
vt 0.835808 0.488730
vt 0.865277 0.488730
vt 0.881463 0.692890
vt 0.834680 0.692890
vt 0.878642 0.705717
vt 0.686833 0.627485
vt 0.835808 0.500010
vt 0.865277 0.500010
vt 0.870518 0.716996
vt 0.699279 0.635857
vt 0.739985 0.461289
vt 0.769454 0.461289
vt 0.769454 0.450731
vt 0.739985 0.450731
vt 0.858071 0.725369
vt 0.714547 0.640312
vt 0.769454 0.437780
vt 0.739985 0.437780
vt 0.842804 0.729823
vt 0.730795 0.640312
vt 0.769454 0.423998
vt 0.739985 0.423998
vt 0.826556 0.729823
vt 0.746063 0.635857
vt 0.769454 0.411047
vt 0.739985 0.411047
vt 0.811288 0.725369
vt 0.758509 0.627485
vt 0.769454 0.400489
vt 0.739985 0.400489
vt 0.798842 0.716996
vt 0.766633 0.616205
vt 0.835808 0.436153
vt 0.865277 0.436153
vt 0.865277 0.424873
vt 0.835808 0.424873
vt 0.790718 0.705717
vt 0.769454 0.603378
vt 0.865277 0.412046
vt 0.835808 0.412046
vt 0.787897 0.692890
vt 0.766633 0.590551
vt 0.865277 0.399219
vt 0.835808 0.399219
vt 0.790718 0.680063
vt 0.758509 0.579271
vt 0.865277 0.387939
vt 0.835808 0.387939
vt 0.798842 0.668783
vt 0.746063 0.570899
vt 0.739985 0.384845
vt 0.769454 0.384845
vt 0.769454 0.374287
vt 0.739985 0.374287
vt 0.811288 0.660411
vt 0.730795 0.566444
vt 0.769454 0.361336
vt 0.739985 0.361336
vt 0.826556 0.655956
vt 0.714547 0.566444
vt 0.769454 0.347554
vt 0.739985 0.347554
vt 0.842804 0.655956
vt 0.699279 0.570899
vt 0.769454 0.334602
vt 0.739985 0.334602
vt 0.858071 0.660411
vt 0.686833 0.579271
vt 0.769454 0.324045
vt 0.739985 0.324045
vt 0.870518 0.668783
vt 0.678709 0.590551
vt 0.865277 0.451797
vt 0.835808 0.451797
vt 0.835808 0.463076
vt 0.865277 0.463076
vt 0.878642 0.680063
vt 0.834680 0.782401
vt 0.787897 0.782401
vt 0.790718 0.795228
vt 0.913188 0.616205
vt 0.883719 0.616205
vt 0.883719 0.629032
vt 0.913188 0.629032
vt 0.881463 0.871912
vt 0.834680 0.871912
vt 0.878642 0.884739
vt 0.798842 0.806508
vt 0.883719 0.640312
vt 0.913188 0.640312
vt 0.870518 0.896019
vt 0.811288 0.814880
vt 0.835808 0.640312
vt 0.865277 0.640312
vt 0.865277 0.629754
vt 0.835808 0.629754
vt 0.858071 0.904391
vt 0.826556 0.819335
vt 0.865277 0.616803
vt 0.835808 0.616803
vt 0.842804 0.908846
vt 0.842804 0.819335
vt 0.865277 0.603021
vt 0.835808 0.603021
vt 0.826556 0.908846
vt 0.858071 0.814880
vt 0.865277 0.590070
vt 0.835808 0.590070
vt 0.811288 0.904391
vt 0.870518 0.806508
vt 0.865277 0.579512
vt 0.835808 0.579512
vt 0.798842 0.896019
vt 0.878642 0.795228
vt 0.883719 0.576454
vt 0.913188 0.576454
vt 0.913188 0.565175
vt 0.883719 0.565175
vt 0.790718 0.884739
vt 0.881463 0.782401
vt 0.913188 0.552348
vt 0.883719 0.552348
vt 0.787897 0.871912
vt 0.878642 0.769574
vt 0.913188 0.539521
vt 0.883719 0.539521
vt 0.790718 0.859086
vt 0.870518 0.758294
vt 0.913188 0.528241
vt 0.883719 0.528241
vt 0.798842 0.847806
vt 0.858071 0.749922
vt 0.787897 0.410979
vt 0.817366 0.410979
vt 0.817366 0.400421
vt 0.787897 0.400421
vt 0.811288 0.839433
vt 0.842804 0.745467
vt 0.817366 0.387470
vt 0.787897 0.387470
vt 0.826556 0.834979
vt 0.826556 0.745467
vt 0.817366 0.373688
vt 0.787897 0.373688
vt 0.842804 0.834979
vt 0.811288 0.749922
vt 0.817366 0.360737
vt 0.787897 0.360737
vt 0.858071 0.839433
vt 0.798842 0.758294
vt 0.817366 0.350179
vt 0.787897 0.350179
vt 0.870518 0.847806
vt 0.790718 0.769574
vt 0.913188 0.592098
vt 0.883719 0.592098
vt 0.883719 0.603378
vt 0.913188 0.603378
vt 0.878642 0.859086
vt 0.722671 0.513867
vt 0.675888 0.513867
vt 0.678709 0.526694
vt 0.865277 0.348188
vt 0.835808 0.348188
vt 0.835808 0.361015
vt 0.865277 0.361015
vt 0.769454 0.871912
vt 0.722671 0.871912
vt 0.766633 0.884739
vt 0.686833 0.537974
vt 0.835808 0.372295
vt 0.865277 0.372295
vt 0.758509 0.896019
vt 0.699279 0.546346
vt 0.787897 0.640312
vt 0.817366 0.640312
vt 0.817366 0.629754
vt 0.787897 0.629754
vt 0.746063 0.904391
vt 0.714547 0.550801
vt 0.817366 0.616803
vt 0.787897 0.616803
vt 0.730795 0.908846
vt 0.730795 0.550801
vt 0.817366 0.603021
vt 0.787897 0.603021
vt 0.714547 0.908846
vt 0.746063 0.546346
vt 0.817366 0.590070
vt 0.787897 0.590070
vt 0.699279 0.904391
vt 0.758509 0.537974
vt 0.817366 0.579512
vt 0.787897 0.579512
vt 0.686833 0.896019
vt 0.766633 0.526694
vt 0.835808 0.563868
vt 0.865277 0.563868
vt 0.865277 0.552588
vt 0.835808 0.552588
vt 0.678709 0.884739
vt 0.769454 0.513867
vt 0.865277 0.539761
vt 0.835808 0.539761
vt 0.675888 0.871912
vt 0.766633 0.501040
vt 0.865277 0.526934
vt 0.835808 0.526934
vt 0.678709 0.859086
vt 0.758509 0.489760
vt 0.865277 0.515654
vt 0.835808 0.515654
vt 0.686833 0.847806
vt 0.746063 0.481388
vt 0.787897 0.563868
vt 0.817366 0.563868
vt 0.817366 0.553310
vt 0.787897 0.553310
vt 0.699279 0.839433
vt 0.730795 0.476933
vt 0.817366 0.540359
vt 0.787897 0.540359
vt 0.714547 0.834979
vt 0.714547 0.476933
vt 0.817366 0.526576
vt 0.787897 0.526576
vt 0.730795 0.834979
vt 0.699279 0.481388
vt 0.817366 0.513625
vt 0.787897 0.513625
vt 0.746063 0.839433
vt 0.686833 0.489760
vt 0.817366 0.503067
vt 0.787897 0.503067
vt 0.758509 0.847806
vt 0.678709 0.501040
vt 0.865277 0.324082
vt 0.835808 0.324082
vt 0.835808 0.335361
vt 0.865277 0.335361
vt 0.766633 0.859086
vt 0.722671 0.782401
vt 0.675888 0.782401
vt 0.678709 0.795228
vt 0.769454 0.284294
vt 0.739985 0.284294
vt 0.739985 0.297121
vt 0.769454 0.297121
vt 0.769454 0.692890
vt 0.722671 0.692890
vt 0.766633 0.705717
vt 0.686833 0.806508
vt 0.739985 0.308401
vt 0.769454 0.308401
vt 0.758509 0.716996
vt 0.699279 0.814880
vt 0.787897 0.334535
vt 0.817366 0.334535
vt 0.817366 0.323977
vt 0.787897 0.323977
vt 0.746063 0.725369
vt 0.714547 0.819335
vt 0.817366 0.311026
vt 0.787897 0.311026
vt 0.730795 0.729823
vt 0.730795 0.819335
vt 0.817366 0.297244
vt 0.787897 0.297244
vt 0.714547 0.729823
vt 0.746063 0.814880
vt 0.817366 0.284293
vt 0.787897 0.284293
vt 0.699279 0.725369
vt 0.758509 0.806508
vt 0.817366 0.273735
vt 0.787897 0.273735
vt 0.686833 0.716996
vt 0.766633 0.795228
vt 0.835808 0.308438
vt 0.865277 0.308438
vt 0.865277 0.297158
vt 0.835808 0.297158
vt 0.678709 0.705717
vt 0.769454 0.782401
vt 0.865277 0.284331
vt 0.835808 0.284331
vt 0.675888 0.692890
vt 0.766633 0.769574
vt 0.865277 0.271504
vt 0.835808 0.271504
vt 0.678709 0.680063
vt 0.758509 0.758294
vt 0.865277 0.260224
vt 0.835808 0.260224
vt 0.686833 0.668783
vt 0.746063 0.749922
vt 0.787897 0.487424
vt 0.817366 0.487424
vt 0.817366 0.476866
vt 0.787897 0.476866
vt 0.699279 0.660411
vt 0.730795 0.745467
vt 0.817366 0.463915
vt 0.787897 0.463915
vt 0.714547 0.655956
vt 0.714547 0.745467
vt 0.817366 0.450132
vt 0.787897 0.450132
vt 0.730795 0.655956
vt 0.699279 0.749922
vt 0.817366 0.437181
vt 0.787897 0.437181
vt 0.746063 0.660411
vt 0.686833 0.758294
vt 0.817366 0.426623
vt 0.787897 0.426623
vt 0.758509 0.668783
vt 0.678709 0.769574
vt 0.769454 0.260187
vt 0.739985 0.260187
vt 0.739985 0.271467
vt 0.769454 0.271467
vt 0.766633 0.680063
vn -1.0000 0.0000 0.0000
vn 0.0000 0.0000 -1.0000
vn 0.9653 -0.2612 -0.0000
vn 0.0000 -0.0000 1.0000
vn -0.1527 0.9883 0.0000
vn 0.0000 -1.0000 -0.0000
vn 0.1619 0.9868 0.0000
vn 0.0000 1.0000 0.0000
vn -0.9890 0.1480 0.0000
vn 0.9172 0.3985 0.0000
vn 0.9830 0.1834 0.0000
vn 0.8534 0.5213 0.0000
vn 0.6213 0.7835 0.0000
vn 0.3253 0.9456 0.0000
vn -0.3253 0.9456 0.0000
vn -0.6213 0.7835 0.0000
vn -0.8534 0.5213 0.0000
vn -0.9830 0.1834 0.0000
vn -0.9830 -0.1834 0.0000
vn -0.8534 -0.5213 0.0000
vn -0.6213 -0.7835 0.0000
vn -0.3253 -0.9456 0.0000
vn 0.3253 -0.9456 0.0000
vn 0.6213 -0.7835 0.0000
vn 0.8534 -0.5213 0.0000
vn 0.9830 -0.1834 0.0000
usemtl CAR_09
s off
f 1/1/1 2/2/1 3/3/1 4/4/1
f 5/5/2 6/6/2 7/7/2 8/8/2
f 7/9/3 6/10/3 9/11/3 10/12/3
f 11/13/4 2/14/4 1/15/4 12/16/4
f 2/17/5 11/18/5 13/19/5 3/20/5
f 10/12/6 14/21/6 8/22/6 7/9/6
f 8/8/2 15/23/2 13/24/2 5/5/2
f 14/25/4 10/26/4 9/27/4 16/28/4
f 16/29/7 9/30/7 6/31/7 5/32/7
f 14/21/6 12/33/6 15/34/6 8/22/6
f 12/16/4 14/25/4 16/28/4 11/13/4
f 17/35/8 18/36/8 19/37/8 20/38/8
f 15/23/2 4/39/2 3/40/2 13/24/2
f 12/33/6 1/41/6 4/42/6 15/34/6
f 11/18/9 17/35/9 20/38/9 13/19/9
f 13/24/2 20/43/2 19/44/2 5/5/2
f 5/32/10 19/37/10 18/36/10 16/29/10
f 16/28/4 18/45/4 17/46/4 11/13/4
f 21/47/4 22/48/4 23/49/4
f 22/50/11 24/51/11 25/52/11 23/53/11
f 24/54/2 26/55/2 25/56/2
f 21/47/4 23/49/4 27/57/4
f 23/53/12 25/52/12 28/58/12 27/59/12
f 25/56/2 26/55/2 28/60/2
f 21/47/4 27/57/4 29/61/4
f 27/62/13 28/63/13 30/64/13 29/65/13
f 28/60/2 26/55/2 30/66/2
f 21/47/4 29/61/4 31/67/4
f 29/65/14 30/64/14 32/68/14 31/69/14
f 30/66/2 26/55/2 32/70/2
f 21/47/4 31/67/4 33/71/4
f 31/69/8 32/68/8 34/72/8 33/73/8
f 32/70/2 26/55/2 34/74/2
f 21/47/4 33/71/4 35/75/4
f 33/73/15 34/72/15 36/76/15 35/77/15
f 34/74/2 26/55/2 36/78/2
f 21/47/4 35/75/4 37/79/4
f 35/77/16 36/76/16 38/80/16 37/81/16
f 36/78/2 26/55/2 38/82/2
f 21/47/4 37/79/4 39/83/4
f 37/84/17 38/85/17 40/86/17 39/87/17
f 38/82/2 26/55/2 40/88/2
f 21/47/4 39/83/4 41/89/4
f 39/87/18 40/86/18 42/90/18 41/91/18
f 40/88/2 26/55/2 42/92/2
f 21/47/4 41/89/4 43/93/4
f 41/91/19 42/90/19 44/94/19 43/95/19
f 42/92/2 26/55/2 44/96/2
f 21/47/4 43/93/4 45/97/4
f 43/95/20 44/94/20 46/98/20 45/99/20
f 44/96/2 26/55/2 46/100/2
f 21/47/4 45/97/4 47/101/4
f 45/102/21 46/103/21 48/104/21 47/105/21
f 46/100/2 26/55/2 48/106/2
f 21/47/4 47/101/4 49/107/4
f 47/105/22 48/104/22 50/108/22 49/109/22
f 48/106/2 26/55/2 50/110/2
f 21/47/4 49/107/4 51/111/4
f 49/109/6 50/108/6 52/112/6 51/113/6
f 50/110/2 26/55/2 52/114/2
f 21/47/4 51/111/4 53/115/4
f 51/113/23 52/112/23 54/116/23 53/117/23
f 52/114/2 26/55/2 54/118/2
f 21/47/4 53/115/4 55/119/4
f 53/117/24 54/116/24 56/120/24 55/121/24
f 54/118/2 26/55/2 56/122/2
f 21/47/4 55/119/4 57/123/4
f 55/124/25 56/125/25 58/126/25 57/127/25
f 56/122/2 26/55/2 58/128/2
f 21/47/4 57/123/4 22/48/4
f 57/127/26 58/126/26 24/51/26 22/50/26
f 58/128/2 26/55/2 24/54/2
f 59/129/4 60/130/4 61/131/4
f 60/132/11 62/133/11 63/134/11 61/135/11
f 62/136/2 64/137/2 63/138/2
f 59/129/4 61/131/4 65/139/4
f 61/135/12 63/134/12 66/140/12 65/141/12
f 63/138/2 64/137/2 66/142/2
f 59/129/4 65/139/4 67/143/4
f 65/144/13 66/145/13 68/146/13 67/147/13
f 66/142/2 64/137/2 68/148/2
f 59/129/4 67/143/4 69/149/4
f 67/147/14 68/146/14 70/150/14 69/151/14
f 68/148/2 64/137/2 70/152/2
f 59/129/4 69/149/4 71/153/4
f 69/151/8 70/150/8 72/154/8 71/155/8
f 70/152/2 64/137/2 72/156/2
f 59/129/4 71/153/4 73/157/4
f 71/155/15 72/154/15 74/158/15 73/159/15
f 72/156/2 64/137/2 74/160/2
f 59/129/4 73/157/4 75/161/4
f 73/159/16 74/158/16 76/162/16 75/163/16
f 74/160/2 64/137/2 76/164/2
f 59/129/4 75/161/4 77/165/4
f 75/166/17 76/167/17 78/168/17 77/169/17
f 76/164/2 64/137/2 78/170/2
f 59/129/4 77/165/4 79/171/4
f 77/169/18 78/168/18 80/172/18 79/173/18
f 78/170/2 64/137/2 80/174/2
f 59/129/4 79/171/4 81/175/4
f 79/173/19 80/172/19 82/176/19 81/177/19
f 80/174/2 64/137/2 82/178/2
f 59/129/4 81/175/4 83/179/4
f 81/177/20 82/176/20 84/180/20 83/181/20
f 82/178/2 64/137/2 84/182/2
f 59/129/4 83/179/4 85/183/4
f 83/184/21 84/185/21 86/186/21 85/187/21
f 84/182/2 64/137/2 86/188/2
f 59/129/4 85/183/4 87/189/4
f 85/187/22 86/186/22 88/190/22 87/191/22
f 86/188/2 64/137/2 88/192/2
f 59/129/4 87/189/4 89/193/4
f 87/191/6 88/190/6 90/194/6 89/195/6
f 88/192/2 64/137/2 90/196/2
f 59/129/4 89/193/4 91/197/4
f 89/195/23 90/194/23 92/198/23 91/199/23
f 90/196/2 64/137/2 92/200/2
f 59/129/4 91/197/4 93/201/4
f 91/199/24 92/198/24 94/202/24 93/203/24
f 92/200/2 64/137/2 94/204/2
f 59/129/4 93/201/4 95/205/4
f 93/206/25 94/207/25 96/208/25 95/209/25
f 94/204/2 64/137/2 96/210/2
f 59/129/4 95/205/4 60/130/4
f 95/209/26 96/208/26 62/133/26 60/132/26
f 96/210/2 64/137/2 62/136/2
f 97/211/4 98/212/4 99/213/4
f 98/214/11 100/215/11 101/216/11 99/217/11
f 100/218/2 102/219/2 101/220/2
f 97/211/4 99/213/4 103/221/4
f 99/217/12 101/216/12 104/222/12 103/223/12
f 101/220/2 102/219/2 104/224/2
f 97/211/4 103/221/4 105/225/4
f 103/226/13 104/227/13 106/228/13 105/229/13
f 104/224/2 102/219/2 106/230/2
f 97/211/4 105/225/4 107/231/4
f 105/229/14 106/228/14 108/232/14 107/233/14
f 106/230/2 102/219/2 108/234/2
f 97/211/4 107/231/4 109/235/4
f 107/233/8 108/232/8 110/236/8 109/237/8
f 108/234/2 102/219/2 110/238/2
f 97/211/4 109/235/4 111/239/4
f 109/237/15 110/236/15 112/240/15 111/241/15
f 110/238/2 102/219/2 112/242/2
f 97/211/4 111/239/4 113/243/4
f 111/241/16 112/240/16 114/244/16 113/245/16
f 112/242/2 102/219/2 114/246/2
f 97/211/4 113/243/4 115/247/4
f 113/248/17 114/249/17 116/250/17 115/251/17
f 114/246/2 102/219/2 116/252/2
f 97/211/4 115/247/4 117/253/4
f 115/251/18 116/250/18 118/254/18 117/255/18
f 116/252/2 102/219/2 118/256/2
f 97/211/4 117/253/4 119/257/4
f 117/255/19 118/254/19 120/258/19 119/259/19
f 118/256/2 102/219/2 120/260/2
f 97/211/4 119/257/4 121/261/4
f 119/259/20 120/258/20 122/262/20 121/263/20
f 120/260/2 102/219/2 122/264/2
f 97/211/4 121/261/4 123/265/4
f 121/266/21 122/267/21 124/268/21 123/269/21
f 122/264/2 102/219/2 124/270/2
f 97/211/4 123/265/4 125/271/4
f 123/269/22 124/268/22 126/272/22 125/273/22
f 124/270/2 102/219/2 126/274/2
f 97/211/4 125/271/4 127/275/4
f 125/273/6 126/272/6 128/276/6 127/277/6
f 126/274/2 102/219/2 128/278/2
f 97/211/4 127/275/4 129/279/4
f 127/277/23 128/276/23 130/280/23 129/281/23
f 128/278/2 102/219/2 130/282/2
f 97/211/4 129/279/4 131/283/4
f 129/281/24 130/280/24 132/284/24 131/285/24
f 130/282/2 102/219/2 132/286/2
f 97/211/4 131/283/4 133/287/4
f 131/288/25 132/289/25 134/290/25 133/291/25
f 132/286/2 102/219/2 134/292/2
f 97/211/4 133/287/4 98/212/4
f 133/291/26 134/290/26 100/215/26 98/214/26
f 134/292/2 102/219/2 100/218/2
f 135/293/4 136/294/4 137/295/4
f 136/296/11 138/297/11 139/298/11 137/299/11
f 138/300/2 140/301/2 139/302/2
f 135/293/4 137/295/4 141/303/4
f 137/299/12 139/298/12 142/304/12 141/305/12
f 139/302/2 140/301/2 142/306/2
f 135/293/4 141/303/4 143/307/4
f 141/308/13 142/309/13 144/310/13 143/311/13
f 142/306/2 140/301/2 144/312/2
f 135/293/4 143/307/4 145/313/4
f 143/311/14 144/310/14 146/314/14 145/315/14
f 144/312/2 140/301/2 146/316/2
f 135/293/4 145/313/4 147/317/4
f 145/315/8 146/314/8 148/318/8 147/319/8
f 146/316/2 140/301/2 148/320/2
f 135/293/4 147/317/4 149/321/4
f 147/319/15 148/318/15 150/322/15 149/323/15
f 148/320/2 140/301/2 150/324/2
f 135/293/4 149/321/4 151/325/4
f 149/323/16 150/322/16 152/326/16 151/327/16
f 150/324/2 140/301/2 152/328/2
f 135/293/4 151/325/4 153/329/4
f 151/330/17 152/331/17 154/332/17 153/333/17
f 152/328/2 140/301/2 154/334/2
f 135/293/4 153/329/4 155/335/4
f 153/333/18 154/332/18 156/336/18 155/337/18
f 154/334/2 140/301/2 156/338/2
f 135/293/4 155/335/4 157/339/4
f 155/337/19 156/336/19 158/340/19 157/341/19
f 156/338/2 140/301/2 158/342/2
f 135/293/4 157/339/4 159/343/4
f 157/341/20 158/340/20 160/344/20 159/345/20
f 158/342/2 140/301/2 160/346/2
f 135/293/4 159/343/4 161/347/4
f 159/348/21 160/349/21 162/350/21 161/351/21
f 160/346/2 140/301/2 162/352/2
f 135/293/4 161/347/4 163/353/4
f 161/351/22 162/350/22 164/354/22 163/355/22
f 162/352/2 140/301/2 164/356/2
f 135/293/4 163/353/4 165/357/4
f 163/355/6 164/354/6 166/358/6 165/359/6
f 164/356/2 140/301/2 166/360/2
f 135/293/4 165/357/4 167/361/4
f 165/359/23 166/358/23 168/362/23 167/363/23
f 166/360/2 140/301/2 168/364/2
f 135/293/4 167/361/4 169/365/4
f 167/363/24 168/362/24 170/366/24 169/367/24
f 168/364/2 140/301/2 170/368/2
f 135/293/4 169/365/4 171/369/4
f 169/370/25 170/371/25 172/372/25 171/373/25
f 170/368/2 140/301/2 172/374/2
f 135/293/4 171/369/4 136/294/4
f 171/373/26 172/372/26 138/297/26 136/296/26
f 172/374/2 140/301/2 138/300/2
